<svg width="69" height="46" viewBox="0 0 69 46" fill="none" xmlns="http://www.w3.org/2000/svg">
<path d="M1.01094 36.59C1.94094 37.63 3.30094 37.21 4.97094 37.74C5.55094 37.9 6.39094 38.69 7.33094 39.3C11.1909 41.79 15.2809 43.45 20.0009 43.03C22.6809 42.79 25.2109 42.15 27.5009 40.64C29.5709 39.27 31.3109 37.56 32.9109 35.7C34.0609 34.36 35.0109 32.94 35.5409 31C36.0109 29.51 36.0209 28.13 36.7209 27.12C36.7909 26.26 36.8409 25.55 36.9109 24.83C37.0209 23.73 36.6309 22.82 35.7809 22.13C35.3909 21.81 34.9409 21.56 34.5709 21.3C33.4909 21.23 32.4709 21.17 31.4709 21.11C31.0109 20.78 30.5709 20.52 30.1909 20.19C29.4809 19.58 28.6609 19.2 27.8309 18.8C25.1109 17.5 22.1509 17.24 19.2509 16.69C18.0509 16.47 16.8109 16.52 15.5109 16.45C14.7809 16.6 13.9809 16.73 13.2009 16.97C12.3309 17.24 11.4109 17.5 10.6509 17.98C8.24094 19.51 5.79094 21.03 4.07094 23.47C3.86094 23.88 3.64094 24.33 3.41094 24.79C2.59094 26.47 2.13094 28.22 2.24094 30.12C2.29094 31.03 2.22094 31.95 2.21094 32.87C1.69094 33.55 1.20094 34.19 0.710938 34.83C0.720937 35.27 0.710938 35.68 0.760938 36.07C0.780938 36.22 0.910938 36.39 1.01094 36.59ZM3.48094 33.24C3.50094 32.16 3.55094 31.05 3.51094 29.93C3.43094 27.91 4.09094 26.12 5.00094 24.38C5.63094 23.17 6.68094 22.31 7.70094 21.48C8.88094 20.52 10.2009 19.68 11.5509 19C12.8209 18.37 14.2109 18.01 15.6609 17.89C19.1909 17.6 22.5709 18.3 25.9009 19.35C27.3609 19.8 28.7609 20.45 29.9209 21.51C30.2209 21.78 30.6009 21.95 30.7709 22.05C32.0409 22.6 33.1909 22.37 34.1309 22.51C34.9009 22.83 35.2609 23.3 35.5009 24.16C35.5109 26.41 34.8009 28.75 34.0509 31.33C32.0309 35.71 28.9009 38.65 24.7909 40.61C24.4309 40.78 24.0509 40.98 23.6509 41.06C19.3709 41.85 15.1409 42.13 11.1109 39.95C9.22094 38.93 7.36094 37.88 5.69094 36.45C4.68094 36.3 3.68094 36.15 2.67094 36C2.52094 35.86 2.36094 35.75 2.22094 35.6C2.16094 35.53 2.14094 35.42 2.07094 35.23C2.50094 34.62 2.97094 33.96 3.48094 33.24ZM68.1209 39.29C67.9309 39.19 67.7609 39.07 67.5809 38.99C62.6209 36.82 57.6509 34.65 52.6909 32.47C51.6609 32.02 50.6709 31.49 49.6509 31.02C48.9109 30.67 48.1809 30.3 47.4209 30.03C47.0609 29.9 46.6309 29.96 46.1609 29.93C45.9409 30.31 45.6709 30.63 45.5609 31C45.4209 31.48 45.3709 32 45.3409 32.51C45.2409 34.47 45.7409 36.35 46.1609 38.19C48.5409 42.07 48.3109 41.59 51.2409 43.38C52.5709 44.2 53.9009 44.87 55.6809 45.2C58.2109 46.03 60.5709 45.97 62.9109 45.76C64.5809 45.61 66.0609 44.85 67.2709 43.69C68.5709 42.45 69.1109 41 68.1209 39.29ZM61.9509 37.87C62.8909 38.2 63.6209 38.53 64.2609 38.81C64.6809 39.29 64.4709 39.66 64.1909 39.93C63.9209 40.2 63.5609 40.39 63.2909 40.57C62.0709 40.21 61.5609 39.4 61.4509 38.31C61.4409 38.18 61.6409 38.02 61.9509 37.87ZM59.1609 38.43C59.1809 38.28 59.4109 38.16 59.5509 38.02C59.6409 38.03 59.7609 38.01 59.8109 38.06C60.5709 38.78 60.8309 39.79 61.2909 40.85C61.0709 41.12 60.9009 41.27 60.7109 41.3C60.4209 41.34 60.1109 41.31 59.7109 41.31C59.2609 40.41 59.0209 39.45 59.1609 38.43ZM57.2209 37.11C57.4709 37.26 57.6409 37.37 57.9109 37.54C57.9809 38.27 58.0709 39.07 58.1309 39.87C58.1509 40.16 58.1009 40.46 58.0809 40.72C57.8709 40.84 57.6909 41.03 57.5309 41.02C56.5309 40.95 55.4709 41.1 54.4909 40.16C54.7509 38.4 55.9209 37.67 57.2209 37.11ZM55.3409 36.87C54.8009 37.72 54.0709 38.37 53.1809 38.95C52.9109 38.79 52.6209 38.69 52.4409 38.49C51.9709 37.97 51.5709 37.39 51.4809 36.45C52.8109 35.7 54.0609 36 55.2909 36.11C55.3309 36.5 55.4209 36.74 55.3409 36.87ZM50.4709 33.01C50.9009 33.13 51.3009 33.19 51.6509 33.36C52.6509 33.84 53.8109 33.97 54.7409 34.61C54.8709 34.7 54.8909 34.94 54.9609 35.11C54.2709 35.46 53.5609 35.15 52.8609 35.16C52.1609 35.17 51.4509 35.16 50.7109 35.16C50.5409 34.9 50.3809 34.66 50.1909 34.17C50.2609 33.66 50.3509 33.38 50.4709 33.01ZM65.6109 43.47C64.8209 43.92 63.9609 44.25 63.5009 44.46C59.7609 45.02 56.5809 44.42 53.2709 43.1C52.5109 42.65 51.5409 42.08 50.5909 41.49C48.5509 40.23 47.4109 38.39 47.0809 36.01C46.8809 34.6 46.7409 33.19 46.8309 31.9C47.2209 31.33 47.5909 31.4 48.0209 31.66C48.0609 31.7 48.1609 31.76 48.1909 31.85C48.4509 32.62 48.7709 33.39 48.9209 34.18C49.5009 37.26 51.1809 39.59 53.8909 41.51C56.6209 42.68 59.2509 42.79 61.8409 42.53C63.6009 42.17 64.7809 41.01 65.9209 40.03C66.7809 39.82 67.2309 40.1 67.4609 40.93C67.3209 42.04 66.6209 42.89 65.6109 43.47ZM61.6009 16.11C62.2909 14.99 62.6909 13.95 62.9509 12.91C62.8809 9.24998 62.3809 7.61998 60.2309 4.34998C58.6309 2.31998 56.3209 1.77998 54.6109 0.539982C52.0409 -0.0800182 49.5809 0.26998 47.1509 0.45998C46.3509 0.51998 45.5409 0.789982 44.8009 1.10998C42.9709 1.90998 41.4309 3.17998 40.5409 4.92998C39.5709 6.83998 39.0209 8.91998 38.9509 11.12C38.8909 12.97 39.4409 14.55 40.5909 15.93C41.1709 16.63 41.8609 17.26 42.5509 17.86C43.3209 18.52 44.1609 19.11 45.0409 19.79C46.0909 20.25 47.2109 20.74 48.1509 21.15C53.8409 22.09 58.1309 19.95 61.6009 16.11ZM40.4009 12.98C39.9009 9.62998 40.6809 6.75998 42.7809 4.02998C44.4309 2.28998 46.3709 1.69998 48.4409 1.48998C49.8609 1.34998 51.3009 1.34998 52.5509 1.28998C54.3309 1.73998 55.8009 2.44998 57.2409 3.23998C58.7309 4.04998 59.8209 5.21998 60.4909 6.77998C61.3109 8.66998 61.9009 10.61 61.7809 12.59C61.3509 14.87 59.9909 16.35 58.2709 17.56C57.0109 18.45 55.6409 19.15 54.2009 19.67C53.5409 19.91 52.8109 20.03 52.1009 20.07C50.9809 20.13 49.8609 20.09 48.7709 20.09C45.1909 18.5 41.9809 16.61 40.4009 12.98ZM26.9209 32.14C26.4409 31.62 26.4509 31.4 26.7909 31.34C26.9409 31.32 27.1809 31.37 27.2609 31.48C27.4709 31.74 27.2909 31.96 26.9209 32.14ZM7.48094 29.7C7.36094 29.59 7.35094 29.35 7.44094 29.04C7.77094 28.95 8.01094 28.94 8.11094 29.05C8.21094 29.16 8.25094 29.41 8.21094 29.57C8.14094 29.85 7.72094 29.94 7.48094 29.7ZM8.41094 24.93C8.40094 24.78 8.57094 24.62 8.85094 24.46C9.34094 24.62 9.40094 24.88 9.20094 25.15C9.10094 25.27 8.86094 25.39 8.72094 25.36C8.58094 25.32 8.41094 25.09 8.41094 24.93ZM12.2409 25.21C12.1409 25.1 12.0809 24.83 12.1509 24.71C12.2309 24.58 12.4709 24.44 12.6209 24.47C12.9309 24.51 13.1009 24.75 12.8909 25.22C12.5809 25.32 12.3509 25.33 12.2409 25.21ZM54.5209 17.36C56.5109 16.26 58.4009 15.06 59.2609 12.7C59.3109 12.06 59.3709 11.35 59.4209 10.64C59.5509 8.78998 58.9009 7.23998 57.6309 5.91998C56.7809 5.02998 55.8909 4.18998 54.6509 3.56998C52.2509 3.34998 49.7909 2.49998 47.0809 2.86998C46.8109 2.98998 46.4509 3.17998 46.0709 3.30998C44.8509 3.72998 43.9809 4.57998 43.3509 5.66998C42.4109 7.29998 41.9809 9.06998 42.1409 10.95C42.1809 11.45 42.3309 11.95 42.5309 12.42C42.7609 12.98 43.0909 13.51 43.5209 14.22C44.7909 15.71 45.8409 17.1 47.3509 18.02C49.8209 18.5 52.2309 18.62 54.5209 17.36ZM52.9809 16.75C52.4109 16.67 52.1509 16.4 52.0609 15.98C51.8609 15.1 51.6409 14.22 51.4909 13.32C51.4509 13.07 51.6309 12.78 51.7309 12.47C52.0809 12.53 52.4209 12.5 52.6609 12.65C53.7609 13.33 55.0609 13.7 55.8109 14.97C54.9409 15.97 53.8709 16.3 52.9809 16.75ZM57.1709 13.68C55.6009 13.46 54.5409 12.4 53.0709 11.71C52.7809 11.45 52.6609 11.29 52.5309 11.14C52.5509 11.06 52.5609 10.92 52.6109 10.91C54.2609 10.39 55.9209 9.90998 57.6509 9.93998C57.8209 10.12 57.9609 10.26 58.1809 10.5C58.1109 11.61 58.3409 12.87 57.1709 13.68ZM54.7109 5.25998C54.9909 5.29998 55.1809 5.32998 55.5309 5.38998C56.3509 6.09998 57.1609 6.97998 57.7109 7.89998C57.7409 8.40998 57.5909 8.64998 57.1109 8.86998C55.9009 9.09998 54.9009 9.26998 53.9009 9.45998C53.4709 9.53998 53.1009 9.44998 52.7109 9.01998C52.9409 7.56998 53.4409 6.19998 54.7109 5.25998ZM49.6009 4.57998C49.7409 4.40998 49.8609 4.25998 50.0209 4.06998C51.1309 3.95998 52.2209 3.95998 53.1409 4.98998C52.6309 6.22998 52.1209 7.44998 51.4909 8.83998C51.0909 9.23998 50.8309 9.18998 50.4109 8.86998C50.1109 7.95998 49.7909 6.88998 49.6009 5.78998C49.5409 5.38998 49.6009 4.96998 49.6009 4.57998ZM45.5709 4.82998C46.2009 4.47998 46.6309 4.21998 47.1109 4.07998C47.3609 3.99998 47.6809 4.10998 47.9409 4.12998C49.1009 7.42998 49.2109 8.05998 48.8709 9.31998C47.3309 8.85998 47.1009 8.71998 44.5609 6.77998C44.3909 5.96998 44.9509 5.48998 45.5709 4.82998ZM43.4109 9.63998C43.5409 9.00998 43.6509 8.60998 44.2709 8.38998C45.5609 8.65998 46.6209 9.57998 47.8309 10.48C46.6009 11.5 45.2609 11.18 44.1309 11.24C43.4509 10.9 43.3909 10.4 43.4109 9.63998ZM46.6509 15.12C45.1409 14.21 45.0009 14.06 44.4409 12.72C44.5609 12.57 44.6609 12.32 44.8209 12.27C46.1009 11.91 47.4009 11.7 48.7309 12.41C48.1909 13.6 47.6009 14.53 46.6509 15.12ZM48.7209 16.95C48.4309 16.92 48.1509 16.78 47.8809 16.69C47.8209 16.46 47.7709 16.27 47.7209 16.07C47.8809 15.34 48.4209 14.85 49.0609 14.21C49.4509 13.94 49.7009 13.81 49.9909 13.64C50.8109 14.51 50.8009 15.51 50.7309 16.52C50.5509 16.66 50.3909 16.78 50.1609 16.96C49.7309 16.97 49.2309 17 48.7209 16.95Z" fill="#374151"/>
</svg>
