<svg width="54" height="66" viewBox="0 0 54 66" fill="none" xmlns="http://www.w3.org/2000/svg">
<path d="M53.0208 11.97C52.6608 11.61 52.2708 11.56 51.8508 11.59C50.8008 11.66 49.8808 12.11 48.7408 12.64C47.7908 13.01 47.1708 13.66 46.2508 13.49C45.8008 13.21 45.6808 12.68 45.3708 12.28C44.9908 11.8 44.5708 11.36 44.2808 11.02C43.7908 9.93002 44.1608 8.78002 43.3608 7.91002C42.8408 7.45002 42.1708 7.24002 41.4508 7.19002C40.2808 7.16002 39.4008 8.09002 38.3608 8.14002C37.6308 7.87002 37.2608 7.39002 36.8808 6.64002C36.7608 5.32002 36.6208 3.80002 36.4908 2.41002C35.6308 1.40002 34.7908 0.690016 33.3808 0.910016C32.2708 1.41002 31.1608 2.14002 30.1708 2.90002C29.6608 3.65002 29.2408 4.36002 28.7308 4.99002C28.3608 5.45002 27.9108 5.92002 27.3908 5.90002C25.6508 4.95002 24.0508 4.07002 22.3508 3.14002C21.8208 3.24002 21.2308 3.35002 20.7608 3.44002C20.0308 4.08002 19.4208 4.63002 18.7808 5.14002C18.5708 5.31002 18.2508 5.35002 18.0208 5.44002C16.0408 3.29002 16.0408 3.29002 14.9608 2.88002C13.3308 3.79002 12.3608 5.41002 11.1508 6.71002C10.7508 7.61002 10.4108 8.47002 10.0008 9.29002C8.79082 11.68 7.96082 14.2 7.36082 16.8C7.06082 18.09 6.76082 19.39 6.42082 20.67C6.27082 21.26 6.07082 21.85 5.83082 22.41C5.09082 24.09 4.33082 25.77 3.54082 27.44C2.25082 30.15 1.51082 33.02 1.20082 35.99C0.970823 38.23 0.770822 40.48 0.730822 42.72C0.680822 45.38 0.770822 48.04 0.900822 50.7C0.960822 51.81 1.26082 52.92 1.47082 54.02C1.88082 56.14 2.59082 58.16 3.51082 59.86C3.75082 60.77 3.56082 61.54 4.04082 62.16C6.89082 64.71 8.79082 65.37 12.3508 65.09C13.6108 64.62 13.9008 63.19 15.1908 62.39C16.9308 61.68 18.8808 60.77 20.9108 60.09C24.8308 58.78 28.3008 56.63 31.7908 54.49C32.8408 53.84 33.8308 53.14 34.7108 52.26C35.0708 51.9 35.4708 51.57 35.8908 51.27C38.1508 49.63 39.9508 47.53 41.6008 45.32C43.8808 42.28 45.5608 38.87 47.4208 35.57C48.9308 32.88 49.9908 30.01 50.5608 26.96C50.9908 24.65 51.5308 22.35 52.0008 20.05C52.3908 18.15 52.7808 16.24 53.1108 14.33C53.2608 13.51 53.4208 12.69 53.0208 11.97ZM42.0808 8.62002C42.9408 9.32002 42.4408 10.39 42.9908 11.53C43.0808 11.64 43.3608 12.07 43.7108 12.43C44.4408 13.21 44.9008 14.08 44.7708 15.38C44.5808 15.75 44.3208 16.3 43.9508 17.05C43.7308 17.54 43.6008 17.82 43.4808 18.08C42.4308 19.04 41.1808 19.37 39.7508 19.45C39.5908 19.24 39.3408 19.03 39.2708 18.77C38.9508 17.59 38.6208 16.41 38.7808 14.95C39.0008 14.59 39.3308 14.08 39.6308 13.56C39.9408 13.04 40.2308 12.5 40.4908 12.04C40.4908 11.64 40.4908 11.34 40.4908 11.14C40.3108 10.34 39.5008 9.95002 39.6008 9.09002C40.3508 8.58002 41.1308 8.14002 42.0808 8.62002ZM30.2208 5.02002C30.5008 4.59002 30.7808 4.17002 31.0108 3.82002C31.9808 3.08002 32.8408 2.35002 33.9808 2.17002C34.5408 2.28002 34.9508 2.55002 35.3108 3.28002C35.6408 4.51002 35.2108 6.11002 35.8408 7.56002C36.6508 9.12002 38.4208 9.87002 39.2308 11.39C39.0308 12.85 37.7008 13.65 37.4108 14.97C37.0608 16.62 38.0808 18.16 37.8008 19.88C35.5508 21.94 33.8408 24.46 32.5608 27.06C30.4608 28.48 29.9308 28.71 28.0308 29.1C27.8208 27.85 27.8308 27.79 29.2408 24.08C30.1608 23.64 31.1708 23.16 32.1608 22.7C32.3708 22.34 32.1808 22.15 31.8808 21.95C31.3208 22 30.7108 22.06 30.1408 22.11C30.0008 21.91 29.7708 21.73 29.8008 21.61C29.9908 20.82 30.2408 20.04 30.4508 19.25C30.8908 17.57 31.3208 15.89 31.7508 14.21C31.9808 13.31 32.0708 12.4 31.8208 11.42C31.6408 11.26 31.4208 11.06 31.2508 10.91C30.7308 10.87 30.3608 11.03 30.1008 11.36C29.6608 11.92 29.2308 12.5 28.8608 13.1C28.3708 13.87 27.9408 14.68 27.4908 15.46C27.2608 15.39 26.9908 15.39 26.9408 15.28C26.5008 14.37 26.3308 13.3 25.1908 12.64C25.0208 12.57 24.8208 12.73 24.6708 13.09C24.9208 13.81 25.1508 14.6 25.4508 15.35C25.7108 16.01 26.0508 16.63 26.4108 17.4C26.2208 18.51 25.5708 19.57 25.1708 20.71C24.8008 21.77 24.4308 22.83 23.9908 24.12C23.7208 25.12 23.5908 25.94 23.0208 26.75C22.2508 25.62 21.5908 24.62 21.4808 23.26C22.1908 21 24.0508 19.08 23.8208 16.11C23.5008 14.97 23.0808 13.5 22.7008 12.16C22.7208 10.96 23.0808 10.02 23.7808 9.01002C24.5408 8.62002 25.4608 8.19002 26.4408 7.91002C28.0708 7.46002 29.2908 6.44002 30.2208 5.02002ZM27.3108 25.64C26.8408 27.25 26.4208 28.62 26.0508 30C25.5808 31.78 25.0108 33.52 24.2208 35.26C23.3508 36.06 22.2308 36.46 21.0108 36.75C20.9408 35.83 21.7208 35.53 22.0808 34.97C22.4108 34.46 22.7508 33.94 23.0308 33.4C23.3608 32.77 23.6508 32.11 23.9908 31.38C24.0108 27.61 25.1608 24.01 26.5608 20.51C27.4708 18.24 28.6308 16.07 29.7108 13.87C29.8208 13.65 30.0708 13.42 30.4908 13.63C30.3108 15.53 29.6908 17.36 29.1508 19.2C28.5508 21.27 27.9708 23.34 27.3108 25.64ZM21.1608 4.79002C21.3208 4.68002 21.5408 4.65002 21.7308 4.58002C22.5108 4.54002 23.0408 5.05002 23.6408 5.43002C24.2308 5.81002 24.8608 6.14002 25.4708 6.48002C25.0008 7.53002 23.8608 7.27002 22.9308 7.95002C22.7908 8.17002 22.5308 8.60002 22.2008 9.22002C21.9608 9.63002 21.7808 9.85002 21.6408 10.03C21.4508 9.99002 21.3308 10.01 21.2608 9.95002C19.8808 8.72002 19.4108 8.09002 18.7008 6.52002C19.5108 5.95002 20.3308 5.36002 21.1608 4.79002ZM5.65082 39.91C5.88082 39.7 6.13082 39.53 6.31082 39.3C7.63082 37.67 9.33082 36.59 11.2308 35.75C11.7808 35.51 12.2608 35.1 12.7408 34.73C12.8508 34.64 12.8208 34.38 12.8508 34.2C12.6708 34.13 12.4508 33.95 12.3108 34C9.21082 35.19 8.62082 35.51 6.39082 37.12C6.23082 37.02 5.93082 36.92 5.93082 36.81C5.94082 34.46 6.18082 32.13 6.69082 29.83C6.71082 29.73 6.78082 29.65 6.87082 29.46C7.81082 28.5 9.01082 27.73 10.1008 26.99C11.3708 26.56 12.5308 26.18 13.6808 25.76C13.9608 25.66 14.1408 25.4 14.0708 24.98C13.2408 24.54 12.5508 25.27 11.7708 25.35C11.0708 25.43 10.3608 25.62 9.71082 25.89C8.96082 26.2 8.28082 26.66 7.58082 27.04C7.38082 26.93 7.21082 26.84 6.94082 26.69C6.92082 26.36 6.84082 25.95 6.89082 25.56C7.47082 21.4 8.39082 17.32 9.61082 13.3C10.2408 11.23 11.3208 9.36002 12.2108 7.41002C12.3808 7.05002 12.6408 6.71002 12.9308 6.43002C13.5808 5.79002 14.1008 5.01002 15.0208 4.56002C15.2608 4.67002 15.6008 4.72002 15.7708 4.92002C16.1608 5.39002 16.4508 5.94002 16.8008 6.44002C17.5208 7.43002 18.1508 8.51002 19.0008 9.38002C20.6208 11.04 21.6208 13.01 22.2708 15.2C22.3908 15.59 22.4908 15.99 22.5808 16.31C22.7008 19.01 20.8008 20.91 20.1708 22.94C20.1008 24.32 20.5208 25.24 20.9908 26.16C21.4508 27.07 21.9408 27.97 22.3408 28.91C22.5808 29.46 22.6608 30.08 22.8108 30.65C22.3008 32.4 21.4408 33.9 20.3508 35.26C20.0308 35.66 19.6408 36 19.3108 36.39C18.6208 37.22 18.3608 38.2 18.5008 39.26C18.6108 40.07 18.8308 40.86 18.9508 41.67C19.1508 42.93 18.9308 44.11 18.2208 45.19C17.7108 45.96 17.2908 46.78 16.7608 47.54C15.1908 49.82 13.9208 52.27 12.6708 54.74C11.9808 56.1 11.2708 57.46 10.2608 58.57C9.34082 58.89 8.59082 58.51 7.77082 58.25C6.91082 56.6 6.68082 54.82 6.97082 52.84C7.26082 52.65 7.58082 52.4 7.93082 52.22C8.75082 51.81 9.60082 51.45 10.4208 51.04C10.6908 50.91 10.9508 50.7 10.9108 50.3C10.7108 50.04 10.3808 50.07 10.1008 50.15C9.22082 50.39 8.35082 50.71 7.46082 50.93C7.21082 50.99 6.90082 50.81 6.64082 50.75C6.14082 49.86 6.12082 48.94 6.10082 47.98C7.33082 46.34 8.81082 44.99 10.7908 44.24C11.2708 44.06 11.7508 43.86 12.1708 43.59C12.3808 43.45 12.4608 43.12 12.6208 42.85C11.2008 42.54 11.2008 42.54 8.69082 43.85C7.80082 44.55 7.08082 45.12 6.39082 45.67C6.16082 45.58 5.99082 45.51 5.72082 45.4C5.69082 45.04 5.61082 44.64 5.61082 44.24C5.61082 42.8 5.49082 41.37 5.65082 39.91ZM3.87082 57.32C2.99082 54.92 2.21082 52.5 2.19082 49.9C2.19082 49.09 2.10082 48.27 2.06082 47.46C2.02082 46.44 1.91082 45.42 1.96082 44.4C2.10082 41.44 2.20082 38.48 2.51082 35.54C2.77082 33.1 3.40082 30.72 4.43082 28.48C4.60082 28.12 4.84082 27.79 5.07082 27.41C5.22082 27.59 5.40082 27.72 5.40082 27.84C5.39082 28.55 5.36082 29.27 5.29082 29.98C5.10082 31.81 4.91082 33.63 4.68082 35.46C4.06082 40.36 4.28082 45.24 5.03082 50.11C5.14082 50.82 5.24082 51.52 5.39082 52.5C5.62082 54.5 5.80082 56.22 5.99082 58.02C5.57082 58.77 5.57082 58.77 4.68082 58.59C4.25082 58.27 4.04082 57.78 3.87082 57.32ZM12.1908 63.6C11.8608 63.9 11.4508 63.93 11.0508 63.88C9.54082 63.68 8.07082 63.38 6.54082 62.51C5.97082 62.07 5.53082 61.8 5.36082 61.29C5.30082 60.86 5.46082 60.51 5.87082 60.12C6.80082 59.66 7.91082 59.68 9.00082 59.9C9.79082 60.05 10.5508 60.35 11.3008 60.65C11.8708 60.88 12.2908 61.33 12.5208 61.92C12.6808 62.31 12.6408 62.58 12.1908 63.6ZM14.9208 60.93C14.7608 61.05 14.5508 61.09 14.3608 61.17C13.7008 60.9 13.4808 60.51 13.8008 60.16C13.9408 60.01 14.0608 59.85 14.2108 59.7C14.3608 59.56 14.5108 59.41 14.6808 59.31C16.3308 58.46 17.7008 57.21 19.1108 56.03C22.9508 52.81 26.6208 49.4 30.0708 45.76C31.4708 44.28 32.7808 42.7 34.1208 41.16C34.3208 40.93 34.5108 40.69 34.6908 40.44C36.0508 38.52 37.3708 36.58 38.7708 34.69C39.9908 33.04 40.9108 31.21 42.0208 29.5C42.1708 29.28 42.4608 29.15 42.6908 28.98C43.0208 28.74 42.5508 28.98 42.8908 29.4C41.9408 32.3 40.5108 34.78 39.1608 37.3C38.6808 38.19 38.0408 39.01 37.3908 39.8C34.6008 43.2 31.7608 46.55 28.6008 49.62C27.9408 50.26 27.3208 50.94 26.6908 51.61C25.4908 52.88 24.0108 53.81 22.6808 54.93C20.1708 57.04 17.5708 59.02 14.9208 60.93ZM51.2808 17.03C50.4708 21.09 49.8008 24.92 48.9308 28.71C48.4008 31 47.4608 33.17 46.2708 35.22C44.9808 37.43 43.7308 39.66 42.4308 41.86C40.4308 45.23 38.0308 48.25 34.7808 50.53C34.5308 50.71 34.2608 50.87 34.0508 51.09C32.4808 52.76 30.4908 53.8 28.5408 54.93C26.4108 56.16 24.3108 57.41 21.9908 58.25C21.7008 58.36 21.4008 58.43 21.0708 58.1C21.7808 56.99 22.9308 56.28 23.8908 55.43C24.8808 54.56 25.9708 53.79 26.9208 52.85C27.7908 51.98 28.6908 51.15 29.5608 50.29C30.5108 49.36 31.4608 48.43 32.3808 47.47C33.3008 46.51 34.1808 45.52 34.8208 44.81C36.2408 43.71 37.6908 44.06 38.8508 43.64C39.0208 43.18 38.8608 42.93 38.5808 42.81C38.1308 42.61 37.5408 42.76 37.1108 42.19C37.6308 41.15 38.6008 40.35 39.1608 39.27C39.7308 38.19 40.4008 37.16 40.9908 36.08C41.5308 35.09 42.0108 34.08 42.5208 33.08C43.0708 31.98 43.6108 30.89 44.1508 29.82C44.2908 28.86 44.4708 27.96 44.5508 27.04C44.5808 26.66 44.4508 26.23 44.3008 25.87C44.1908 25.6 43.9308 25.39 43.4908 25.54C43.4008 25.6 43.1808 25.67 43.0808 25.82C41.3608 28.48 39.6708 31.16 37.9508 33.82C37.6208 34.33 37.2208 34.81 36.8108 35.25C36.6108 35.46 36.3208 35.62 35.9008 35.43C35.6808 34.74 35.4708 33.97 35.1908 33.22C35.0108 32.75 34.7708 32.27 34.2908 32.03C34.1608 31.96 33.9408 32.07 33.6808 32.11C33.4508 33.18 34.4808 33.94 34.4208 34.98C34.3708 35.89 35.1708 36.69 34.8408 37.68C34.2208 39.08 33.3408 40.31 32.2708 41.43C31.2808 42.46 30.3608 43.57 29.3608 44.7C29.1708 44.81 28.9008 44.87 28.6108 44.67C28.3508 43.91 28.1208 43.14 27.8108 42.39C27.6608 42.02 27.3808 41.69 27.1108 41.4C26.9108 41.18 26.6508 40.99 26.3708 40.89C26.0808 40.78 25.7908 40.88 25.6308 41.25C25.6908 42.12 26.7608 42.39 26.9708 43.23C27.0408 43.73 27.0708 44.25 27.2108 44.74C27.3508 45.21 27.6008 45.65 27.8408 46.18C26.4508 47.96 24.7508 49.42 23.1208 50.95C21.4808 52.49 19.7908 53.97 18.0408 55.38C16.3008 56.79 14.4608 58.1 12.7408 59.39C12.2908 59.43 12.0808 59.26 11.9708 58.86C14.3008 54.62 16.4208 50.19 19.1308 46.11C20.0208 44.76 20.4908 43.39 20.2408 41.78C20.1808 41.38 20.2308 40.97 20.2308 40.58C20.4508 39.49 21.1308 38.74 22.0508 37.98C23.3408 37.28 25.0108 36.89 26.1708 35.24C26.7508 34.13 26.8808 32.51 28.0108 31.26C28.8508 30.47 30.0008 30.01 31.1408 29.55C32.6408 28.95 33.7308 27.97 34.3908 26.48C35.0208 25.07 36.0208 23.89 36.9708 22.69C37.7008 21.77 38.5908 21.18 39.7508 20.92C40.9408 20.66 42.1508 20.4 43.2508 19.81C43.6108 19.62 43.9608 19.41 44.4208 19.15C45.1408 17.54 46.0408 15.95 47.6508 14.5C48.6608 14 49.8608 13.23 51.2708 12.89C51.3608 12.87 51.4608 12.94 51.5608 12.96C51.6608 13.13 51.8608 13.31 51.8408 13.47C51.6908 14.56 51.5108 15.66 51.2808 17.03ZM21.9208 50.71C21.6908 50.86 21.5508 50.89 21.5008 50.83C20.7208 49.98 20.6008 49.75 20.2108 48.37C20.3808 48.3 20.6008 48.13 20.7008 48.18C21.6608 48.67 22.1908 49.42 21.9208 50.71Z" fill="#374151"/>
</svg>
