<svg width="82" height="82" viewBox="0 0 82 82" fill="none" xmlns="http://www.w3.org/2000/svg">
<path d="M41 0C37.54 0 34.09 0.43 30.77 1.29C30.77 1.29 30.75 1.29 30.74 1.29C12.64 5.96 0 22.29 0 41C0 59.71 12.64 76.04 30.74 80.71C30.74 80.71 30.76 80.71 30.77 80.71C34.1 81.56 37.54 82 41 82C63.61 82 82 63.61 82 41C82 18.39 63.61 0 41 0ZM41 80C38.99 80 36.99 79.85 35.02 79.54C51.09 73.72 62 58.39 62 41C62 23.61 51.09 8.28 35.02 2.46C36.99 2.16 38.99 2 41 2C62.5 2 80 19.5 80 41C80 62.5 62.5 80 41 80Z" fill="black"/>
</svg>
