<svg width="569" height="963" viewBox="0 0 569 963" fill="none" xmlns="http://www.w3.org/2000/svg">
<path opacity="0.35" d="M328.633 846.636L416.561 957.763H328.633V846.636ZM-150.248 846.636L-62.3204 957.763H-150.248V846.636ZM-155.09 115.056L-242.61 4.44289H-155.09V115.056ZM323.791 115.056L236.271 4.44289H323.791V115.056ZM398.053 842.476L487.569 957.576L421.935 957.417L331.001 842.476H398.053ZM323.791 847.15V957.763H236.271L323.791 847.15ZM-80.8285 842.476L8.68737 957.576L-56.9461 957.417L-147.88 842.476H-80.8285ZM-155.09 847.15V957.763H-242.61L-155.09 847.15ZM-301.601 840.259L-389.689 953.523V727.004L-301.601 840.259ZM-301.601 600.819L-389.689 714.083V487.563L-301.601 600.819ZM-301.601 361.378L-389.689 474.642V248.123L-301.601 361.378ZM-301.601 121.937L-389.689 235.202V8.68195L-301.601 121.937ZM-224.103 119.72L-313.618 4.62917L-247.985 4.78878L-157.05 119.72H-224.103ZM-150.248 115.57V4.43406H-62.3204L-150.248 115.57ZM177.28 121.937L89.1924 235.202V8.68195L177.28 121.937ZM254.779 119.72L165.263 4.62917L230.897 4.78878L321.831 119.72H254.779ZM328.633 115.57V4.43406H416.561L328.633 115.57ZM475.552 361.378L563.232 248.646V474.119L475.552 361.378ZM475.552 600.819L563.232 488.086V713.56L475.552 600.819ZM475.552 840.259L563.232 727.527V953L475.552 840.259ZM471.659 842.476L561.316 957.754L493.2 957.585L403.667 842.476H471.659ZM421.935 723.111L487.569 722.951L398.053 838.042H331.001L421.935 723.111ZM254.779 842.476H321.831L230.897 957.417L165.263 957.576L254.779 842.476ZM181.173 842.476H249.165L159.632 957.585L91.5161 957.754L181.173 842.476ZM89.1924 727.004L177.28 840.259L89.1924 953.523V727.004ZM-3.329 840.259L84.3502 727.527V953L-3.329 840.259ZM-7.22268 842.476L82.4345 957.754L14.3187 957.585L-75.2145 842.476H-7.22268ZM-56.9461 723.111L8.68737 722.951L-80.8285 838.042H-147.88L-56.9461 723.111ZM-224.103 842.476H-157.05L-247.985 957.417L-313.618 957.576L-224.103 842.476ZM-297.708 842.476H-229.716L-319.249 957.585L-387.366 957.754L-297.708 842.476ZM-319.249 722.942L-229.716 838.042H-297.708L-387.366 722.774L-319.249 722.942ZM-297.708 603.036H-229.716L-319.249 718.145L-387.366 718.313L-297.708 603.036ZM-319.249 483.502L-229.716 598.602H-297.708L-387.366 483.333L-319.249 483.502ZM-297.708 363.595H-229.716L-319.249 478.704L-387.366 478.872L-297.708 363.595ZM-319.249 244.061L-229.716 359.161H-297.708L-387.366 243.892L-319.249 244.061ZM-297.708 124.154H-229.716L-319.249 239.263L-387.366 239.432L-297.708 124.154ZM-387.366 4.45181L-319.249 4.62025L-229.716 119.72H-297.708L-387.366 4.45181ZM-247.985 239.095L-313.618 239.254L-224.103 124.154H-157.05L-247.985 239.095ZM-80.8285 119.72H-147.88L-56.9461 4.78878L8.68737 4.62917L-80.8285 119.72ZM82.4345 4.45181L-7.22268 119.72H-75.2145L14.3187 4.62025L82.4345 4.45181ZM181.173 124.154H249.165L159.632 239.263L91.5161 239.432L181.173 124.154ZM230.897 239.095L165.263 239.254L254.779 124.154H321.831L230.897 239.095ZM398.053 119.72H331.001L421.935 4.78878L487.569 4.62917L398.053 119.72ZM471.659 119.72H403.667L493.2 4.62025L561.316 4.45181L471.659 119.72ZM475.552 121.937L563.232 9.20512V234.678L475.552 121.937ZM471.659 359.161H403.667L493.2 244.061L561.316 243.892L471.659 359.161ZM493.2 478.704L403.667 363.595H471.659L561.316 478.872L493.2 478.704ZM471.659 598.602H403.667L493.2 483.502L561.316 483.333L471.659 598.602ZM493.2 718.145L403.667 603.036H471.659L561.316 718.313L493.2 718.145ZM328.633 722.756H416.561L328.633 833.892V722.756ZM254.779 838.042L165.263 722.951L230.897 723.111L321.831 838.042H254.779ZM-150.248 722.756H-62.3204L-150.248 833.892V722.756ZM-224.103 603.036H-157.05L-247.985 717.976L-313.618 718.136L-224.103 603.036ZM-247.985 483.67L-157.05 598.602H-224.103L-313.618 483.511L-247.985 483.67ZM-224.103 363.595H-157.05L-247.985 478.535L-313.618 478.695L-224.103 363.595ZM-247.985 244.229L-157.05 359.161H-224.103L-313.618 244.07L-247.985 244.229ZM-155.09 239.441H-242.61L-155.09 128.828V239.441ZM-80.8285 124.154L8.68737 239.254L-56.9461 239.095L-147.88 124.154H-80.8285ZM82.4345 239.432L14.3187 239.263L-75.2145 124.154H-7.22268L82.4345 239.432ZM-3.329 121.937L84.3502 9.20512V234.678L-3.329 121.937ZM323.791 239.441H236.271L323.791 128.828V239.441ZM398.053 124.154L487.569 239.254L421.935 239.095L331.001 124.154H398.053ZM331.001 359.161L421.935 244.229L487.569 244.07L398.053 359.161H331.001ZM331.001 363.595H398.053L487.569 478.695L421.935 478.535L331.001 363.595ZM328.633 478.881V367.754L416.561 478.881H328.633ZM331.001 598.602L421.935 483.67L487.569 483.511L398.053 598.602H331.001ZM331.001 603.036H398.053L487.569 718.136L421.935 717.976L331.001 603.036ZM328.633 718.322V607.195L416.561 718.322H328.633ZM323.791 722.765V833.378L236.271 722.765H323.791ZM-155.09 722.765V833.378L-242.61 722.765H-155.09ZM-155.09 718.322H-242.61L-155.09 607.709V718.322ZM-155.09 483.324V593.937L-242.61 483.324H-155.09ZM-155.09 478.881H-242.61L-155.09 368.269V478.881ZM-155.09 243.884V354.496L-242.61 243.884H-155.09ZM-150.248 239.441V128.314L-62.3204 239.441H-150.248ZM328.633 239.441V128.314L416.561 239.441H328.633ZM328.633 243.875H416.561L328.633 355.011V243.875ZM328.633 483.315H416.561L328.633 594.451V483.315ZM236.271 478.881L323.791 368.269V478.881H236.271ZM323.791 607.709V718.322H236.271L323.791 607.709ZM-150.248 607.195L-62.3204 718.322H-150.248V607.195ZM-150.248 355.011V243.875H-62.3204L-150.248 355.011ZM323.791 354.496L236.271 243.884H323.791V354.496ZM165.263 478.695L254.779 363.595H321.831L230.897 478.535L165.263 478.695ZM165.263 718.136L254.779 603.036H321.831L230.897 717.976L165.263 718.136ZM89.1924 487.563L177.28 600.819L89.1924 714.083V487.563ZM-75.2145 603.036H-7.22268L82.4345 718.313L14.3187 718.145L-75.2145 603.036ZM-80.8285 603.036L8.68737 718.136L-56.9461 717.976L-147.88 603.036H-80.8285ZM-150.248 594.451V483.315H-62.3204L-150.248 594.451ZM-80.8285 359.161H-147.88L-56.9461 244.229L8.68737 244.07L-80.8285 359.161ZM82.4345 243.892L-7.22268 359.161H-75.2145L14.3187 244.061L82.4345 243.892ZM177.28 361.378L89.1924 474.642V248.123L177.28 361.378ZM249.165 359.161H181.173L91.5161 243.892L159.632 244.061L249.165 359.161ZM254.779 359.161L165.263 244.07L230.897 244.229L321.831 359.161H254.779ZM91.5161 478.872L181.173 363.595H249.165L159.632 478.704L91.5161 478.872ZM236.271 483.324H323.791V593.937L236.271 483.324ZM254.779 598.602L165.263 483.511L230.897 483.67L321.831 598.602H254.779ZM181.173 603.036H249.165L159.632 718.145L91.5161 718.313L181.173 603.036ZM159.632 483.502L249.165 598.602H181.173L91.5161 483.333L159.632 483.502ZM84.3502 488.086V713.56L-3.329 600.819L84.3502 488.086ZM14.3187 483.502L82.4345 483.333L-7.22268 598.602H-75.2145L14.3187 483.502ZM8.68737 483.511L-80.8285 598.602H-147.88L-56.9461 483.67L8.68737 483.511ZM-80.8285 363.595L8.68737 478.695L-56.9461 478.535L-147.88 363.595H-80.8285ZM82.4345 478.872L14.3187 478.704L-75.2145 363.595H-7.22268L82.4345 478.872ZM-3.329 361.378L84.3502 248.646V474.119L-3.329 361.378ZM-150.248 367.754L-62.3204 478.881H-150.248V367.754ZM561.316 239.432L493.2 239.263L403.667 124.154H471.659L561.316 239.432ZM-224.103 838.042L-313.618 722.951L-247.985 723.111L-157.05 838.042H-224.103ZM-7.22268 838.042H-75.2145L14.3187 722.942L82.4345 722.774L-7.22268 838.042ZM91.5161 722.774L159.632 722.942L249.165 838.042H181.173L91.5161 722.774ZM471.659 838.042H403.667L493.2 722.942L561.316 722.774L471.659 838.042ZM159.632 4.62025L249.165 119.72H181.173L91.5161 4.45181L159.632 4.62025ZM567.666 -2.86698e-05H323.791V0.00880486H89.1924V-2.86698e-05H88.7843H86.9843H86.9753H86.9663H-154.682H-155.09V0.00880486H-390.842L-391.897 -2.86698e-05C-391.906 -2.86698e-05 -391.906 -2.86698e-05 -391.906 -2.86698e-05C-391.915 -2.86698e-05 -391.915 0.00880486 -391.924 0.00880486H-394.123V239.45V243.875V478.89V483.315V718.331V722.756V962.197H-391.906H-391.897H-150.248H13.3515C13.3515 962.197 13.3606 962.197 13.3695 962.197C13.3784 962.197 13.396 962.197 13.4048 962.197H84.7583H86.9663C86.9752 962.197 86.9753 962.197 86.9753 962.197H86.9843H328.633H492.233C492.233 962.197 492.242 962.197 492.251 962.197C492.26 962.197 492.277 962.197 492.286 962.197H564.792H565.848C565.857 962.197 565.857 962.197 565.857 962.197C565.866 962.197 565.866 962.197 565.875 962.197H567.666H568.074V722.756V718.322V483.315V478.881V243.875V239.441V-2.86698e-05H567.666Z" fill="#ECECEC"/>
</svg>
