<svg width="569" height="963" viewBox="0 0 569 963" fill="none" xmlns="http://www.w3.org/2000/svg">
<path opacity="0.35" d="M328.633 847.439L416.561 958.566H328.633V847.439ZM-150.248 847.439L-62.3204 958.566H-150.248V847.439ZM-155.09 115.859L-242.61 5.24617H-155.09V115.859ZM323.791 115.859L236.271 5.24617H323.791V115.859ZM398.053 843.28L487.569 958.38L421.935 958.22L331.001 843.28H398.053ZM323.791 847.953V958.566H236.271L323.791 847.953ZM-80.8285 843.28L8.68737 958.38L-56.9461 958.22L-147.88 843.28H-80.8285ZM-155.09 847.953V958.566H-242.61L-155.09 847.953ZM-301.601 841.063L-389.689 954.327V727.807L-301.601 841.063ZM-301.601 601.622L-389.689 714.886V488.367L-301.601 601.622ZM-301.601 362.181L-389.689 475.446V248.926L-301.601 362.181ZM-301.601 122.741L-389.689 236.005V9.48523L-301.601 122.741ZM-224.103 120.524L-313.618 5.43246L-247.985 5.59207L-157.05 120.524H-224.103ZM-150.248 116.373V5.23734H-62.3204L-150.248 116.373ZM177.28 122.741L89.1924 236.005V9.48523L177.28 122.741ZM254.779 120.524L165.263 5.43246L230.897 5.59207L321.831 120.524H254.779ZM328.633 116.373V5.23734H416.561L328.633 116.373ZM475.552 362.181L563.232 249.449V474.922L475.552 362.181ZM475.552 601.622L563.232 488.89V714.363L475.552 601.622ZM475.552 841.063L563.232 728.33V953.803L475.552 841.063ZM471.659 843.28L561.316 958.557L493.2 958.388L403.667 843.28H471.659ZM421.935 723.914L487.569 723.754L398.053 838.846H331.001L421.935 723.914ZM254.779 843.28H321.831L230.897 958.22L165.263 958.38L254.779 843.28ZM181.173 843.28H249.165L159.632 958.388L91.5161 958.557L181.173 843.28ZM89.1924 727.807L177.28 841.063L89.1924 954.327V727.807ZM-3.329 841.063L84.3502 728.33V953.803L-3.329 841.063ZM-7.22268 843.28L82.4345 958.557L14.3187 958.388L-75.2145 843.28H-7.22268ZM-56.9461 723.914L8.68737 723.754L-80.8285 838.846H-147.88L-56.9461 723.914ZM-224.103 843.28H-157.05L-247.985 958.22L-313.618 958.38L-224.103 843.28ZM-297.708 843.28H-229.716L-319.249 958.388L-387.366 958.557L-297.708 843.28ZM-319.249 723.746L-229.716 838.846H-297.708L-387.366 723.577L-319.249 723.746ZM-297.708 603.839H-229.716L-319.249 718.948L-387.366 719.116L-297.708 603.839ZM-319.249 484.305L-229.716 599.405H-297.708L-387.366 484.136L-319.249 484.305ZM-297.708 364.398H-229.716L-319.249 479.507L-387.366 479.676L-297.708 364.398ZM-319.249 244.864L-229.716 359.964H-297.708L-387.366 244.696L-319.249 244.864ZM-297.708 124.958H-229.716L-319.249 240.067L-387.366 240.235L-297.708 124.958ZM-387.366 5.2551L-319.249 5.42354L-229.716 120.524H-297.708L-387.366 5.2551ZM-247.985 239.898L-313.618 240.058L-224.103 124.958H-157.05L-247.985 239.898ZM-80.8285 120.524H-147.88L-56.9461 5.59207L8.68737 5.43246L-80.8285 120.524ZM82.4345 5.2551L-7.22268 120.524H-75.2145L14.3187 5.42354L82.4345 5.2551ZM181.173 124.958H249.165L159.632 240.067L91.5161 240.235L181.173 124.958ZM230.897 239.898L165.263 240.058L254.779 124.958H321.831L230.897 239.898ZM398.053 120.524H331.001L421.935 5.59207L487.569 5.43246L398.053 120.524ZM471.659 120.524H403.667L493.2 5.42354L561.316 5.2551L471.659 120.524ZM475.552 122.741L563.232 10.0084V235.482L475.552 122.741ZM471.659 359.964H403.667L493.2 244.864L561.316 244.696L471.659 359.964ZM493.2 479.507L403.667 364.398H471.659L561.316 479.676L493.2 479.507ZM471.659 599.405H403.667L493.2 484.305L561.316 484.136L471.659 599.405ZM493.2 718.948L403.667 603.839H471.659L561.316 719.116L493.2 718.948ZM328.633 723.559H416.561L328.633 834.695V723.559ZM254.779 838.846L165.263 723.754L230.897 723.914L321.831 838.846H254.779ZM-150.248 723.559H-62.3204L-150.248 834.695V723.559ZM-224.103 603.839H-157.05L-247.985 718.779L-313.618 718.939L-224.103 603.839ZM-247.985 484.473L-157.05 599.405H-224.103L-313.618 484.314L-247.985 484.473ZM-224.103 364.398H-157.05L-247.985 479.339L-313.618 479.498L-224.103 364.398ZM-247.985 245.033L-157.05 359.964H-224.103L-313.618 244.873L-247.985 245.033ZM-155.09 240.244H-242.61L-155.09 129.631V240.244ZM-80.8285 124.958L8.68737 240.058L-56.9461 239.898L-147.88 124.958H-80.8285ZM82.4345 240.235L14.3187 240.067L-75.2145 124.958H-7.22268L82.4345 240.235ZM-3.329 122.741L84.3502 10.0084V235.482L-3.329 122.741ZM323.791 240.244H236.271L323.791 129.631V240.244ZM398.053 124.958L487.569 240.058L421.935 239.898L331.001 124.958H398.053ZM331.001 359.964L421.935 245.033L487.569 244.873L398.053 359.964H331.001ZM331.001 364.398H398.053L487.569 479.498L421.935 479.339L331.001 364.398ZM328.633 479.685V368.558L416.561 479.685H328.633ZM331.001 599.405L421.935 484.473L487.569 484.314L398.053 599.405H331.001ZM331.001 603.839H398.053L487.569 718.939L421.935 718.779L331.001 603.839ZM328.633 719.125V607.998L416.561 719.125H328.633ZM323.791 723.568V834.181L236.271 723.568H323.791ZM-155.09 723.568V834.181L-242.61 723.568H-155.09ZM-155.09 719.125H-242.61L-155.09 608.513V719.125ZM-155.09 484.128V594.74L-242.61 484.128H-155.09ZM-155.09 479.685H-242.61L-155.09 369.072V479.685ZM-155.09 244.687V355.3L-242.61 244.687H-155.09ZM-150.248 240.244V129.117L-62.3204 240.244H-150.248ZM328.633 240.244V129.117L416.561 240.244H328.633ZM328.633 244.678H416.561L328.633 355.814V244.678ZM328.633 484.119H416.561L328.633 595.255V484.119ZM236.271 479.685L323.791 369.072V479.685H236.271ZM323.791 608.513V719.125H236.271L323.791 608.513ZM-150.248 607.998L-62.3204 719.125H-150.248V607.998ZM-150.248 355.814V244.678H-62.3204L-150.248 355.814ZM323.791 355.3L236.271 244.687H323.791V355.3ZM165.263 479.498L254.779 364.398H321.831L230.897 479.339L165.263 479.498ZM165.263 718.939L254.779 603.839H321.831L230.897 718.779L165.263 718.939ZM89.1924 488.367L177.28 601.622L89.1924 714.886V488.367ZM-75.2145 603.839H-7.22268L82.4345 719.116L14.3187 718.948L-75.2145 603.839ZM-80.8285 603.839L8.68737 718.939L-56.9461 718.779L-147.88 603.839H-80.8285ZM-150.248 595.255V484.119H-62.3204L-150.248 595.255ZM-80.8285 359.964H-147.88L-56.9461 245.033L8.68737 244.873L-80.8285 359.964ZM82.4345 244.696L-7.22268 359.964H-75.2145L14.3187 244.864L82.4345 244.696ZM177.28 362.181L89.1924 475.446V248.926L177.28 362.181ZM249.165 359.964H181.173L91.5161 244.696L159.632 244.864L249.165 359.964ZM254.779 359.964L165.263 244.873L230.897 245.033L321.831 359.964H254.779ZM91.5161 479.676L181.173 364.398H249.165L159.632 479.507L91.5161 479.676ZM236.271 484.128H323.791V594.74L236.271 484.128ZM254.779 599.405L165.263 484.314L230.897 484.473L321.831 599.405H254.779ZM181.173 603.839H249.165L159.632 718.948L91.5161 719.116L181.173 603.839ZM159.632 484.305L249.165 599.405H181.173L91.5161 484.136L159.632 484.305ZM84.3502 488.89V714.363L-3.329 601.622L84.3502 488.89ZM14.3187 484.305L82.4345 484.136L-7.22268 599.405H-75.2145L14.3187 484.305ZM8.68737 484.314L-80.8285 599.405H-147.88L-56.9461 484.473L8.68737 484.314ZM-80.8285 364.398L8.68737 479.498L-56.9461 479.339L-147.88 364.398H-80.8285ZM82.4345 479.676L14.3187 479.507L-75.2145 364.398H-7.22268L82.4345 479.676ZM-3.329 362.181L84.3502 249.449V474.922L-3.329 362.181ZM-150.248 368.558L-62.3204 479.685H-150.248V368.558ZM561.316 240.235L493.2 240.067L403.667 124.958H471.659L561.316 240.235ZM-224.103 838.846L-313.618 723.754L-247.985 723.914L-157.05 838.846H-224.103ZM-7.22268 838.846H-75.2145L14.3187 723.746L82.4345 723.577L-7.22268 838.846ZM91.5161 723.577L159.632 723.746L249.165 838.846H181.173L91.5161 723.577ZM471.659 838.846H403.667L493.2 723.746L561.316 723.577L471.659 838.846ZM159.632 5.42354L249.165 120.524H181.173L91.5161 5.2551L159.632 5.42354ZM567.666 0.803255H323.791V0.812089H89.1924V0.803255H88.7843H86.9843H86.9753H86.9663H-154.682H-155.09V0.812089H-390.842L-391.897 0.803255C-391.906 0.803255 -391.906 0.803255 -391.906 0.803255C-391.915 0.803255 -391.915 0.812089 -391.924 0.812089H-394.123V240.253V244.678V479.693V484.119V719.134V723.559V963H-391.906H-391.897H-150.248H13.3515C13.3515 963 13.3606 963 13.3695 963C13.3784 963 13.396 963 13.4048 963H84.7583H86.9663C86.9752 963 86.9753 963 86.9753 963H86.9843H328.633H492.233C492.233 963 492.242 963 492.251 963C492.26 963 492.277 963 492.286 963H564.792H565.848C565.857 963 565.857 963 565.857 963C565.866 963 565.866 963 565.875 963H567.666H568.074V723.559V719.125V484.119V479.685V244.678V240.244V0.803255H567.666Z" fill="#F5E4BE"/>
</svg>
