<svg width="81" height="80" viewBox="0 0 81 80" fill="none" xmlns="http://www.w3.org/2000/svg">
<path d="M40.7851 20.512C40.5591 20.504 40.3361 20.5 40.1131 20.5C29.6651 20.5 20.9901 28.815 20.6321 39.336C20.4541 44.542 22.3151 49.505 25.8701 53.311C29.4261 57.118 34.2511 59.312 39.4561 59.489C39.6841 59.497 39.9101 59.501 40.1371 59.501C45.0931 59.501 49.7911 57.651 53.4311 54.251C57.2381 50.695 59.4321 45.871 59.6091 40.665C59.7871 35.46 57.9271 30.496 54.3721 26.69C50.8151 22.883 45.9901 20.688 40.7851 20.512ZM52.0661 52.789C48.6491 55.978 44.1951 57.643 39.5241 57.49C34.8521 57.331 30.5221 55.362 27.3321 51.945C24.1411 48.529 22.4721 44.076 22.6301 39.404C22.9531 29.962 30.7361 22.5 40.1131 22.5C40.3131 22.5 40.5151 22.503 40.7171 22.51C45.3891 22.669 49.7191 24.638 52.9091 28.054C56.0991 31.471 57.7691 35.924 57.6101 40.596C57.4511 45.268 55.4821 49.598 52.0661 52.789Z" fill="black"/>
<path d="M67.8671 39H64.9201C64.3671 39 63.9201 39.447 63.9201 40C63.9201 40.553 64.3671 41 64.9201 41H67.8671C68.4201 41 68.8671 40.553 68.8671 40C68.8671 39.447 68.4201 39 67.8671 39Z" fill="black"/>
<path d="M71.6201 40C71.6201 40.553 72.0671 41 72.6201 41H79.1201C79.6731 41 80.1201 40.553 80.1201 40C80.1201 39.447 79.6731 39 79.1201 39H72.6201C72.0671 39 71.6201 39.447 71.6201 40Z" fill="black"/>
<path d="M75.1871 24.897C74.9471 24.4 74.3491 24.194 73.8511 24.432L63.1851 29.6C62.6881 29.841 62.4801 30.439 62.7201 30.936C62.8931 31.293 63.2491 31.5 63.6211 31.5C63.7671 31.5 63.9161 31.468 64.0561 31.4L74.7231 26.233C75.2201 25.992 75.4281 25.395 75.1871 24.897Z" fill="black"/>
<path d="M56.3891 22.182C56.5861 22.394 56.8531 22.5 57.1201 22.5C57.3641 22.5 57.6091 22.411 57.8021 22.231L74.9691 6.23098C75.3731 5.85398 75.3961 5.22198 75.0191 4.81798C74.6421 4.41298 74.0091 4.39098 73.6061 4.76798L56.4391 20.768C56.0341 21.146 56.0121 21.777 56.3891 22.182Z" fill="black"/>
<path d="M48.3451 17.229C48.4871 17.299 48.6381 17.333 48.7861 17.333C49.1551 17.333 49.5101 17.129 49.6831 16.775L56.3501 3.27498C56.5951 2.77998 56.3911 2.17998 55.8961 1.93598C55.4031 1.69198 54.8011 1.89498 54.5571 2.38998L47.8901 15.89C47.6451 16.386 47.8491 16.985 48.3451 17.229Z" fill="black"/>
<path d="M40.1201 16.2C40.6731 16.2 41.1201 15.753 41.1201 15.2V12.253C41.1201 11.7 40.6731 11.253 40.1201 11.253C39.5671 11.253 39.1201 11.7 39.1201 12.253V15.2C39.1201 15.753 39.5671 16.2 40.1201 16.2Z" fill="black"/>
<path d="M40.1201 8.49998C40.6731 8.49998 41.1201 8.05298 41.1201 7.49998V1.00098C41.1201 0.447977 40.6731 0.000976562 40.1201 0.000976562C39.5671 0.000976562 39.1201 0.447977 39.1201 1.00098V7.49998C39.1201 8.05298 39.5671 8.49998 40.1201 8.49998Z" fill="black"/>
<path d="M29.7201 16.936C29.8931 17.293 30.2491 17.5 30.6211 17.5C30.7671 17.5 30.9161 17.468 31.0561 17.4C31.5531 17.159 31.7611 16.561 31.5211 16.064L26.3551 5.39698C26.1151 4.90098 25.5171 4.69298 25.0191 4.93198C24.5221 5.17298 24.3141 5.77098 24.5541 6.26798L29.7201 16.936Z" fill="black"/>
<path d="M20.8891 23.682C21.0861 23.894 21.3531 24 21.6201 24C21.8641 24 22.1091 23.911 22.3021 23.731C22.7061 23.355 22.7291 22.722 22.3521 22.318L6.35209 5.15098C5.97409 4.74498 5.34209 4.72498 4.93909 5.10098C4.53509 5.47698 4.51209 6.10998 4.88909 6.51398L20.8891 23.682Z" fill="black"/>
<path d="M2.51209 25.563L16.0121 32.229C16.1541 32.299 16.3051 32.333 16.4531 32.333C16.8221 32.333 17.1771 32.129 17.3501 31.775C17.5951 31.28 17.3911 30.68 16.8961 30.436L3.39609 23.77C2.90309 23.525 2.30109 23.729 2.05709 24.224C1.81209 24.72 2.01709 25.319 2.51209 25.563Z" fill="black"/>
<path d="M15.3211 41C15.8741 41 16.3211 40.553 16.3211 40C16.3211 39.447 15.8741 39 15.3211 39H12.3731C11.8201 39 11.3731 39.447 11.3731 40C11.3731 40.553 11.8201 41 12.3731 41H15.3211Z" fill="black"/>
<path d="M1.12109 41H7.62009C8.17309 41 8.62009 40.553 8.62009 40C8.62009 39.447 8.17309 39 7.62009 39H1.12109C0.568094 39 0.121094 39.447 0.121094 40C0.121094 40.553 0.568094 41 1.12109 41Z" fill="black"/>
<path d="M5.05409 55.103C5.22709 55.46 5.58309 55.667 5.95509 55.667C6.10109 55.667 6.25009 55.635 6.39009 55.567L17.0561 50.4C17.5531 50.159 17.7611 49.561 17.5211 49.064C17.2811 48.566 16.6801 48.362 16.1851 48.599L5.51909 53.767C5.02109 54.008 4.81309 54.605 5.05409 55.103Z" fill="black"/>
<path d="M5.22309 75.182C5.42009 75.394 5.68709 75.5 5.95409 75.5C6.19809 75.5 6.44309 75.411 6.63609 75.231L23.8021 59.231C24.2061 58.854 24.2291 58.222 23.8521 57.818C23.4751 57.413 22.8421 57.391 22.4391 57.768L5.27309 73.768C4.86809 74.146 4.84609 74.777 5.22309 75.182Z" fill="black"/>
<path d="M31.8961 62.771C31.4031 62.527 30.8011 62.73 30.5571 63.225L23.8901 76.725C23.6451 77.22 23.8481 77.82 24.3441 78.064C24.4861 78.134 24.6371 78.168 24.7851 78.168C25.1541 78.168 25.5091 77.964 25.6821 77.61L32.3491 64.11C32.5961 63.614 32.3921 63.015 31.8961 62.771Z" fill="black"/>
<path d="M41.1201 64.8C41.1201 64.247 40.6731 63.8 40.1201 63.8C39.5671 63.8 39.1201 64.247 39.1201 64.8V67.747C39.1201 68.3 39.5671 68.747 40.1201 68.747C40.6731 68.747 41.1201 68.3 41.1201 67.747V64.8Z" fill="black"/>
<path d="M40.1201 71.5C39.5671 71.5 39.1201 71.947 39.1201 72.5V78.999C39.1201 79.552 39.5671 79.999 40.1201 79.999C40.6731 79.999 41.1201 79.552 41.1201 78.999V72.5C41.1201 71.947 40.6731 71.5 40.1201 71.5Z" fill="black"/>
<path d="M55.2231 75.067C55.7201 74.826 55.9281 74.228 55.6881 73.731L50.5211 63.064C50.2811 62.567 49.6821 62.361 49.1851 62.599C48.6881 62.84 48.4801 63.438 48.7201 63.935L53.8871 74.602C54.0601 74.959 54.4161 75.166 54.7881 75.166C54.9341 75.167 55.0831 75.135 55.2231 75.067Z" fill="black"/>
<path d="M57.9381 56.269C57.5341 56.645 57.5111 57.278 57.8881 57.682L73.8881 74.849C74.0851 75.061 74.3521 75.167 74.6191 75.167C74.8631 75.167 75.1081 75.078 75.3011 74.898C75.7051 74.522 75.7281 73.889 75.3511 73.485L59.3511 56.318C58.9751 55.913 58.3421 55.892 57.9381 56.269Z" fill="black"/>
<path d="M62.8911 48.225C62.6461 48.72 62.8501 49.32 63.3451 49.564L76.8451 56.23C76.9871 56.3 77.1381 56.334 77.2861 56.334C77.6551 56.334 78.0101 56.13 78.1831 55.776C78.4281 55.281 78.2241 54.681 77.7291 54.437L64.2291 47.771C63.7371 47.526 63.1351 47.729 62.8911 48.225Z" fill="black"/>
</svg>
