<svg width="80" height="80" viewBox="0 0 80 80" fill="none" xmlns="http://www.w3.org/2000/svg">
<path d="M16.1941 47.73H66.4151C66.5241 47.73 66.6301 47.71 66.7291 47.675C74.1931 47.142 80.0031 40.931 80.0031 33.424C80.0031 25.761 73.9471 19.486 66.3701 19.134C66.5871 18.078 66.6971 17.011 66.6971 15.946C66.6971 7.153 59.5441 0 50.7511 0C44.4981 0 38.8241 3.704 36.2531 9.339C34.2571 8.102 31.9891 7.453 29.6221 7.453C24.2411 7.453 19.4511 10.892 17.6841 15.918C17.1541 15.862 16.6671 15.836 16.1931 15.836C7.40009 15.836 0.246094 22.989 0.246094 31.782C0.246094 40.575 7.40109 47.73 16.1941 47.73ZM16.1941 17.837C16.8111 17.837 17.4631 17.891 18.2431 18.005C18.7441 18.087 19.2191 17.769 19.3521 17.281C20.6231 12.673 24.8461 9.454 29.6221 9.454C31.9761 9.454 34.2161 10.218 36.1001 11.662C36.3521 11.854 36.6831 11.915 36.9891 11.828C37.2951 11.738 37.5401 11.508 37.6491 11.208C39.6421 5.701 44.9071 2.001 50.7511 2.001C58.4411 2.001 64.6971 8.257 64.6971 15.947C64.6971 17.259 64.5061 18.578 64.1281 19.868C64.0371 20.178 64.1011 20.512 64.3001 20.765C64.4991 21.02 64.8161 21.169 65.1301 21.148L65.3801 21.133C65.4851 21.126 65.5901 21.118 65.6971 21.118C72.4821 21.118 78.0031 26.639 78.0031 33.424C78.0031 39.953 72.8911 45.343 66.3661 45.694C66.2941 45.698 66.2241 45.711 66.1571 45.73H16.1941C8.50409 45.73 2.24709 39.473 2.24709 31.783C2.24709 24.093 8.50309 17.837 16.1941 17.837Z" fill="black"/>
<path d="M55.4891 59.507C56.0411 59.507 56.4891 59.06 56.4891 58.507C56.4891 57.954 56.0411 57.507 55.4891 57.507H10.0071C9.45509 57.507 9.00709 57.954 9.00709 58.507C9.00709 59.06 9.45509 59.507 10.0071 59.507H55.4891Z" fill="black"/>
<path d="M70.0001 67.754H24.5181C23.9661 67.754 23.5181 68.201 23.5181 68.754C23.5181 69.307 23.9661 69.754 24.5181 69.754H70.0001C70.5521 69.754 71.0001 69.307 71.0001 68.754C71.0001 68.201 70.5521 67.754 70.0001 67.754Z" fill="black"/>
<path d="M10.1671 80.001H70.0001C70.5521 80.001 71.0001 79.554 71.0001 79.001C71.0001 78.448 70.5521 78.001 70.0001 78.001H10.1671C9.61509 78.001 9.16709 78.448 9.16709 79.001C9.16709 79.554 9.61409 80.001 10.1671 80.001Z" fill="black"/>
</svg>
