<svg width="84" height="81" viewBox="0 0 84 81" fill="none" xmlns="http://www.w3.org/2000/svg">
<path d="M49.6186 9.62878C49.6716 9.62878 49.7246 9.62478 49.7776 9.61578C50.3226 9.52878 50.6946 9.01578 50.6076 8.46978L49.3906 0.856778C49.3036 0.311778 48.7826 -0.0632229 48.2456 0.0277771C47.7006 0.114777 47.3286 0.627777 47.4156 1.17378L48.6326 8.78678C48.7116 9.27778 49.1366 9.62878 49.6186 9.62878Z" fill="black"/>
<path d="M60.5796 10.7058C60.6956 10.7488 60.8146 10.7688 60.9316 10.7688C61.3356 10.7688 61.7166 10.5218 61.8676 10.1208L64.5806 2.90378C64.7746 2.38678 64.5136 1.80978 63.9966 1.61578C63.4796 1.42378 62.9026 1.68278 62.7086 2.20078L59.9956 9.41778C59.8016 9.93478 60.0626 10.5118 60.5796 10.7058Z" fill="black"/>
<path d="M70.1946 17.3618C70.4196 17.3618 70.6466 17.2868 70.8336 17.1318L76.7646 12.2058C77.1896 11.8518 77.2476 11.2228 76.8946 10.7978C76.5426 10.3728 75.9126 10.3148 75.4866 10.6668L69.5556 15.5928C69.1306 15.9468 69.0726 16.5758 69.4256 17.0008C69.6226 17.2388 69.9076 17.3618 70.1946 17.3618Z" fill="black"/>
<path d="M82.3936 24.3498L74.8016 25.6928C74.2586 25.7888 73.8946 26.3068 73.9906 26.8508C74.0766 27.3358 74.4986 27.6768 74.9746 27.6768C75.0326 27.6768 75.0906 27.6718 75.1496 27.6608L82.7416 26.3178C83.2846 26.2218 83.6486 25.7038 83.5526 25.1598C83.4566 24.6158 82.9386 24.2518 82.3936 24.3498Z" fill="black"/>
<path d="M81.6206 39.6568L74.3596 37.0638C73.8406 36.8778 73.2676 37.1488 73.0816 37.6688C72.8956 38.1888 73.1666 38.7608 73.6866 38.9458L80.9476 41.5388C81.0586 41.5788 81.1726 41.5978 81.2836 41.5978C81.6946 41.5978 82.0796 41.3428 82.2256 40.9338C82.4116 40.4148 82.1406 39.8428 81.6206 39.6568Z" fill="black"/>
<path d="M24.3366 22.3848L31.6796 24.7338C31.7816 24.7668 31.8836 24.7818 31.9846 24.7818C32.4076 24.7818 32.8006 24.5108 32.9376 24.0868C33.1056 23.5608 32.8156 22.9978 32.2896 22.8298L24.9466 20.4808C24.4186 20.3088 23.8576 20.6018 23.6896 21.1278C23.5206 21.6538 23.8106 22.2168 24.3366 22.3848Z" fill="black"/>
<path d="M37.3706 14.8788C37.5676 15.0938 37.8366 15.2018 38.1076 15.2018C38.3496 15.2018 38.5916 15.1148 38.7836 14.9378C39.1906 14.5638 39.2166 13.9318 38.8436 13.5248L33.6266 7.84678C33.2536 7.44078 32.6216 7.41178 32.2136 7.78678C31.8066 8.16078 31.7806 8.79278 32.1536 9.19978L37.3706 14.8788Z" fill="black"/>
<path d="M14.1156 72.1538C18.0246 72.1538 21.6976 70.4878 24.2736 67.6188C26.9896 75.0628 34.0756 80.1088 42.1346 80.1088C49.8516 80.1088 56.7326 75.4748 59.6796 68.4398C62.0426 70.1898 64.9026 71.1398 67.8736 71.1398C75.4886 71.1398 81.6846 64.9448 81.6846 57.3288C81.6846 50.5128 76.7666 44.7858 70.1226 43.7028C69.8356 42.0818 69.2826 40.5618 68.5336 39.1668C70.4756 35.7008 71.2136 31.6758 70.5856 27.7508C69.0466 18.1218 59.9626 11.5378 50.3306 13.0778C41.8536 14.4318 35.7226 21.5118 35.4496 29.9098C33.0906 28.7608 30.4686 28.1268 27.7546 28.1268C18.1456 28.1268 10.3036 35.8418 10.0976 45.4008C4.36764 47.1518 0.431641 52.4158 0.431641 58.4698C0.433641 66.0168 6.57164 72.1538 14.1156 72.1538ZM37.4486 31.0438C37.1786 23.1378 42.7736 16.3118 50.6476 15.0538C59.1826 13.6948 67.2476 19.5278 68.6126 28.0688C69.1116 31.1898 68.6466 34.3888 67.3016 37.2338C67.3006 37.2318 67.2986 37.2308 67.2976 37.2288C66.9426 36.7558 66.5626 36.3058 66.1566 35.8778C66.1526 35.8738 66.1486 35.8688 66.1446 35.8648C65.3356 35.0138 64.4316 34.2588 63.4496 33.6118C63.4416 33.6058 63.4326 33.6008 63.4236 33.5958C61.9956 32.6598 60.4086 31.9578 58.7136 31.5388C58.6206 31.5158 58.5276 31.4968 58.4336 31.4748C57.9956 31.3758 57.5526 31.2958 57.1026 31.2348C56.9716 31.2168 56.8426 31.1958 56.7116 31.1818C56.1686 31.1228 55.6206 31.0828 55.0636 31.0828C53.2796 31.0828 51.5486 31.3868 49.9286 31.9628C47.2286 32.9228 44.8376 34.6358 43.0296 36.9498C43.0266 36.9448 43.0236 36.9408 43.0206 36.9358C42.7136 36.4068 42.3736 35.9028 42.0176 35.4138C41.9546 35.3268 41.8946 35.2388 41.8296 35.1528C41.4806 34.6918 41.1086 34.2538 40.7196 33.8318C40.6316 33.7368 40.5436 33.6428 40.4536 33.5488C40.0526 33.1328 39.6346 32.7368 39.1966 32.3638C39.1136 32.2928 39.0276 32.2258 38.9436 32.1558C38.4756 31.7718 37.9936 31.4068 37.4906 31.0728C37.4756 31.0658 37.4626 31.0538 37.4486 31.0438ZM11.3496 47.1328C11.8046 47.0228 12.1216 46.6108 12.1136 46.1418C12.1126 46.0678 12.1076 45.9948 12.1016 45.9198L12.0946 45.7878C12.0946 37.1528 19.1196 30.1278 27.7556 30.1278C30.7556 30.1278 33.6286 31.0008 36.0796 32.5458C36.2546 32.6568 36.4246 32.7738 36.5946 32.8908C36.7346 32.9868 36.8766 33.0818 37.0146 33.1828C37.1826 33.3058 37.3436 33.4368 37.5056 33.5668C37.6406 33.6748 37.7776 33.7788 37.9086 33.8908C38.0546 34.0158 38.1936 34.1478 38.3346 34.2778C38.4736 34.4058 38.6156 34.5298 38.7496 34.6628C38.8686 34.7808 38.9806 34.9058 39.0956 35.0268C39.2416 35.1798 39.3896 35.3308 39.5296 35.4898C39.6236 35.5978 39.7106 35.7118 39.8016 35.8218C39.9516 36.0028 40.1036 36.1818 40.2456 36.3698C40.3186 36.4658 40.3836 36.5678 40.4536 36.6648C40.6036 36.8738 40.7556 37.0808 40.8966 37.2978C40.9526 37.3838 41.0016 37.4758 41.0556 37.5638C41.2006 37.7978 41.3466 38.0328 41.4796 38.2758C41.5066 38.3248 41.5286 38.3758 41.5546 38.4248C41.7076 38.7108 41.8566 38.9998 41.9926 39.2978C42.1456 39.6328 42.4716 39.8568 42.8396 39.8798C43.2016 39.8998 43.5586 39.7228 43.7526 39.4078C46.2046 35.4488 50.4326 33.0848 55.0646 33.0848C55.4306 33.0848 55.7916 33.1058 56.1516 33.1358C56.2736 33.1458 56.3946 33.1588 56.5156 33.1728C56.7536 33.1988 56.9896 33.2338 57.2246 33.2728C57.3626 33.2958 57.5006 33.3148 57.6376 33.3418C57.9346 33.4008 58.2266 33.4708 58.5166 33.5488C58.7256 33.6058 58.9316 33.6718 59.1366 33.7388C59.2386 33.7718 59.3406 33.8058 59.4416 33.8408C59.6686 33.9208 59.8946 34.0038 60.1166 34.0958C60.1316 34.1018 60.1456 34.1088 60.1606 34.1148C60.9346 34.4388 61.6766 34.8348 62.3766 35.2978C62.3896 35.3058 62.4016 35.3148 62.4136 35.3228C64.0726 36.4288 65.4926 37.9078 66.5306 39.6798L66.5326 39.6818C67.4176 41.1918 68.0266 42.8898 68.2556 44.7198C68.3136 45.1798 68.6806 45.5398 69.1416 45.5888C75.1526 46.2308 79.6856 51.2768 79.6856 57.3298C79.6856 63.8428 74.3876 69.1408 67.8746 69.1408C64.9186 69.1408 62.0916 68.0398 59.9136 66.0418C59.6636 65.8128 59.3166 65.7268 58.9876 65.8118C58.6596 65.8968 58.3966 66.1418 58.2896 66.4628C55.9646 73.4288 49.4736 78.1088 42.1366 78.1088C34.3316 78.1088 27.5456 72.8188 25.6346 65.2438C25.5376 64.8608 25.2236 64.5698 24.8346 64.5038C24.7776 64.4938 24.7216 64.4888 24.6656 64.4888C24.3346 64.4888 24.0206 64.6528 23.8326 64.9338C21.6556 68.2028 18.0236 70.1538 14.1176 70.1538C7.67564 70.1538 2.43464 64.9128 2.43464 58.4708C2.43364 53.0718 6.09964 48.4098 11.3496 47.1328Z" fill="black"/>
</svg>
