<svg width="80" height="80" viewBox="0 0 80 80" fill="none" xmlns="http://www.w3.org/2000/svg">
<path d="M16.0681 47.73H24.2041L21.1781 52.051C20.9641 52.356 20.9381 52.755 21.1111 53.086C21.2831 53.417 21.6251 53.624 21.9981 53.624H30.7021L22.5261 65.301C22.2101 65.753 22.3191 66.376 22.7721 66.694C22.9461 66.816 23.1461 66.875 23.3441 66.875C23.6591 66.875 23.9701 66.727 24.1641 66.448L33.4411 53.198C33.6551 52.893 33.6811 52.494 33.5081 52.163C33.3361 51.832 32.9941 51.625 32.6211 51.625H23.9171L26.6441 47.73H56.3441L48.5151 58.552C48.1921 58.999 48.2921 59.624 48.7401 59.948C48.9171 60.076 49.1221 60.137 49.3251 60.137C49.6361 60.137 49.9401 59.993 50.1371 59.723L58.8131 47.729H66.2881C66.3971 47.729 66.5031 47.709 66.6021 47.674C74.0661 47.141 79.8751 40.93 79.8751 33.423C79.8751 25.761 73.8191 19.485 66.2421 19.133C66.4601 18.077 66.5691 17.01 66.5691 15.945C66.5691 7.15202 59.4161 -0.000976562 50.6231 -0.000976562C44.3701 -0.000976562 38.6961 3.70302 36.1251 9.33702C34.1301 8.10102 31.8621 7.45202 29.4941 7.45202C24.1131 7.45202 19.3241 10.891 17.5561 15.917C17.0261 15.861 16.5391 15.835 16.0651 15.835C7.27214 15.835 0.119141 22.988 0.119141 31.781C0.119141 40.574 7.27514 47.73 16.0681 47.73ZM16.0681 17.837C16.6851 17.837 17.3371 17.891 18.1181 18.005C18.6161 18.079 19.0931 17.769 19.2271 17.281C20.4981 12.673 24.7211 9.45402 29.4971 9.45402C31.8521 9.45402 34.0931 10.218 35.9751 11.661C36.2281 11.855 36.5591 11.916 36.8641 11.828C37.1711 11.738 37.4161 11.509 37.5241 11.208C39.5171 5.70102 44.7831 2.00102 50.6271 2.00102C58.3171 2.00102 64.5731 8.25702 64.5731 15.947C64.5731 17.259 64.3821 18.579 64.0041 19.868C63.9131 20.178 63.9781 20.513 64.1771 20.766C64.3771 21.02 64.6901 21.174 65.0071 21.148L65.2561 21.133C65.3611 21.126 65.4661 21.118 65.5731 21.118C72.3581 21.118 77.8791 26.639 77.8791 33.424C77.8791 39.953 72.7671 45.343 66.2411 45.694C66.1691 45.698 66.0991 45.711 66.0321 45.73H60.2631L63.7731 40.878C63.9931 40.573 64.0241 40.172 63.8531 39.837C63.6821 39.503 63.3381 39.292 62.9621 39.292H54.2581L61.9961 28.241C62.3121 27.789 62.2031 27.166 61.7501 26.848C61.3001 26.532 60.6741 26.641 60.3571 27.094L51.5171 39.718C51.3031 40.023 51.2771 40.422 51.4501 40.753C51.6221 41.084 51.9641 41.291 52.3371 41.291H61.0041L57.7941 45.729H28.0471L31.6581 40.573C31.9741 40.121 31.8651 39.498 31.4121 39.18C30.9611 38.864 30.3371 38.973 30.0191 39.426L25.6061 45.729H16.0691C8.37914 45.729 2.12314 39.472 2.12314 31.782C2.12314 24.092 8.37814 17.837 16.0681 17.837Z" fill="black"/>
<path d="M19.0411 56.848C18.5911 56.532 17.9651 56.641 17.6481 57.094L11.9011 65.302C11.5851 65.754 11.6941 66.377 12.1471 66.695C12.3211 66.817 12.5211 66.876 12.7191 66.876C13.0341 66.876 13.3451 66.728 13.5391 66.449L19.2861 58.241C19.6041 57.788 19.4941 57.165 19.0411 56.848Z" fill="black"/>
<path d="M42.9561 52.118C42.5051 51.802 41.8801 51.911 41.5631 52.364L32.2601 65.651C31.9441 66.103 32.0531 66.726 32.5061 67.044C32.6801 67.166 32.8801 67.225 33.0781 67.225C33.3931 67.225 33.7041 67.077 33.8981 66.798L43.2021 53.511C43.5191 53.059 43.4091 52.436 42.9561 52.118Z" fill="black"/>
<path d="M63.6791 52.052L50.3751 71.052C50.0591 71.504 50.1681 72.127 50.6211 72.445C50.7951 72.567 50.9951 72.626 51.1931 72.626C51.5081 72.626 51.8191 72.478 52.0131 72.199L65.3171 53.199C65.6331 52.747 65.5241 52.124 65.0711 51.806C64.6211 51.489 63.9951 51.598 63.6791 52.052Z" fill="black"/>
<path d="M14.8541 79.001C15.1691 79.001 15.4801 78.853 15.6741 78.574L21.2361 70.631C21.5521 70.179 21.4431 69.556 20.9901 69.238C20.5401 68.922 19.9141 69.031 19.5971 69.484L14.0351 77.427C13.7191 77.879 13.8281 78.502 14.2811 78.82C14.4551 78.942 14.6551 79.001 14.8541 79.001Z" fill="black"/>
<path d="M29.9121 69.928L23.9601 78.428C23.6441 78.88 23.7531 79.503 24.2061 79.821C24.3801 79.943 24.5801 80.002 24.7781 80.002C25.0931 80.002 25.4041 79.854 25.5981 79.575L31.5501 71.075C31.8661 70.623 31.7571 70 31.3041 69.682C30.8541 69.365 30.2291 69.475 29.9121 69.928Z" fill="black"/>
<path d="M39.5181 74.125C39.8331 74.125 40.1441 73.977 40.3381 73.698L47.5961 63.333C47.9121 62.881 47.8031 62.258 47.3501 61.94C46.9001 61.624 46.2741 61.733 45.9571 62.186L38.6991 72.551C38.3831 73.003 38.4921 73.626 38.9451 73.944C39.1191 74.066 39.3191 74.125 39.5181 74.125Z" fill="black"/>
</svg>
