<svg width="97" height="56" viewBox="0 0 97 56" fill="none" xmlns="http://www.w3.org/2000/svg">
<path d="M94.37 8.30584C95.75 5.63584 98.6 3.40584 95.85 0.195844C93.69 -0.464156 92.27 0.645843 91 2.00584C88.51 4.66584 86.3 7.53584 84.24 10.5358C83.12 12.1758 82.13 13.9658 80.49 15.1658C77.56 17.3258 74.34 19.0258 71.16 20.7658C70.32 21.2158 69.45 21.2258 68.53 21.2058C62.36 21.0758 56.25 19.9558 50.06 20.0358C44.52 20.1058 39.01 19.6058 33.46 19.8458C28.91 20.0458 24.44 21.1058 19.94 21.2458C15.36 21.3958 10.92 22.0758 6.54 23.1858C4.01 23.8258 1.79 25.1158 0 27.3158C0.05 27.9258 0.12 28.5358 0.2 29.1458C1.31 31.2058 2.43 33.2858 3.62 35.4758C6.1 40.2358 9.82 43.7258 13.14 47.5458C17.6 52.7158 23.56 54.4258 29.72 55.3558C35.89 56.2858 42.21 55.7458 48.47 55.6758C52.66 55.6358 56.76 54.7258 60.9 54.2558C65.04 53.7958 68.55 52.0558 71.31 48.9158C73.41 46.5358 75.52 44.1458 77.62 41.7658C81.68 37.1558 83.65 31.7458 83.91 26.0358C83.51 24.3958 82.04 24.3158 81.23 23.4258C82.8 21.6558 84.26 20.0858 86.18 18.9458C88.75 17.4258 91.23 15.7358 93.74 14.0958C94.73 13.4458 95.72 12.8058 96.19 11.6858C96.37 10.0958 95.49 9.05584 94.37 8.30584ZM70.21 23.0958C72.18 22.1058 74.18 21.1458 76.05 19.9658C75.79 20.6058 75.6 20.9858 75.37 21.2158C75.33 21.2758 75.27 21.3358 75.19 21.3758C74.86 21.5458 74.53 21.7258 74.2 21.8958C72.86 22.9658 71.33 23.7658 69.81 24.5558C67.92 25.9758 65.03 27.2158 63.29 27.2158C63.28 27.1258 63.3 27.0658 63.32 26.9958C63.35 26.9858 63.38 26.9858 63.42 26.9758C64.59 26.4358 65.65 25.6958 66.74 25.0158C67.86 24.3158 69.03 23.6958 70.21 23.0958ZM66.82 22.8458C65.23 24.4058 63.34 25.0458 61.75 26.0958C60.4 27.2158 59.25 27.5458 57.91 27.5358C49.57 27.4358 41.23 27.6758 32.9 27.0958C31.81 27.0258 30.71 26.9358 29.64 27.0558C29.59 27.0558 29.55 27.0658 29.5 27.0658C25.49 27.0258 21.47 26.9058 17.46 26.6758C15.91 26.5858 14.36 26.4758 12.81 26.3558C11.67 26.2558 10.53 26.1558 9.39 26.0458C8.82 25.9958 8.24 25.9358 7.67 25.8758C7.63 25.8758 6.93 25.8058 6.52 25.6858C12.52 22.6158 49.92 20.8158 66.82 22.8458ZM81.97 30.2958C81.12 34.7058 78.85 38.3758 75.93 41.6958C73.89 44.0158 71.88 46.3458 69.75 48.5758C67.71 50.7258 65.23 52.0558 62.24 52.6358C54.36 54.1558 46.4 54.4458 38.41 54.5058C32.46 54.5458 26.7 53.5458 21.04 51.7758C19.43 51.2758 18.19 50.1958 17 49.0858C14.95 47.1658 12.96 45.1658 10.95 43.2058C6.75 38.7058 4.05 33.7058 1.5 28.5358C2.83 27.9858 3.93 28.6058 5.07 28.7058C12.22 29.4058 19.35 30.1358 26.54 30.0758C27.38 30.1158 28.22 30.1558 29.06 30.1858C32.72 30.8058 36.39 30.8258 40.06 30.7358C45.14 30.9158 50.22 30.8558 55.3 30.6458C61.31 30.3958 67.34 30.1158 73.33 29.5158C76.22 29.2258 79.1 28.7658 81.9 27.9658C82.43 28.7058 82.12 29.5158 81.97 30.2958ZM81.28 25.4958C81.29 25.5058 81.31 25.5458 81.32 25.5558C81.33 25.5758 81.34 25.5858 81.34 25.5958C81.35 25.6158 81.36 25.6458 81.36 25.6658C81.37 25.6958 81.38 25.7358 81.38 25.7658C81.38 25.7358 81.38 25.7258 81.38 25.7658C81.39 25.8258 81.39 25.8958 81.39 25.9558C81.39 26.0858 81.39 26.2258 81.39 26.3558C81.39 26.4258 81.38 26.4858 81.38 26.5558C81.37 26.5758 81.36 26.5958 81.34 26.6158C80.99 27.0058 80.5 27.2558 79.98 27.4358C78.99 27.6658 78 27.8658 76.99 28.0258C76.78 28.0458 76.58 28.0658 76.38 28.0858C75.51 28.1658 74.63 28.1958 73.76 28.2858C72.58 28.4158 71.4 28.6058 70.22 28.7758C68.58 28.8958 66.94 28.9858 65.31 29.0958C63.16 29.2358 61.02 29.3558 58.87 29.4658C58.69 29.4658 58.52 29.4658 58.34 29.4658C56.62 29.4558 54.9 29.3658 53.18 29.3958C51.43 29.4258 49.69 29.5258 47.95 29.6158C45.78 29.7358 43.6 29.8158 41.42 29.7658C40.82 29.7458 40.23 29.7158 39.63 29.6958C38.92 29.6458 38.21 29.5958 37.5 29.5058C37.44 29.4958 37.39 29.4758 37.35 29.4558C36.86 29.4358 36.36 29.4058 35.87 29.3758C33.99 29.3458 32.1 29.2758 30.22 29.2058C29.78 29.1858 29.33 29.1758 28.89 29.1558C24.95 28.9858 21.01 28.7858 17.07 28.5558C14.93 28.4358 12.78 28.2958 10.64 28.1558C8.94 27.9858 7.24 27.7758 5.54 27.5158C5.53 27.5258 5.51 27.5258 5.49 27.5358C5.48 27.5358 5.48 27.5358 5.47 27.5358C5.42 27.5358 5.36 27.5258 5.31 27.5258C5.29 27.5258 5.11 27.5058 5.24 27.5158C5.15 27.5058 5.05 27.4858 4.96 27.4658C4.76 27.4258 4.56 27.3658 4.36 27.2958C4.32 27.2758 4.27 27.2658 4.23 27.2458C4.22 27.2458 4.22 27.2458 4.21 27.2358C4.19 27.2258 4.18 27.2258 4.16 27.2158C4.07 27.1758 3.98 27.1258 3.89 27.0858C3.88 27.0758 3.86 27.0658 3.85 27.0558C4.13 26.8458 4.41 26.6358 4.69 26.4258C5.59 26.6958 6.53 26.7958 7.46 26.8858C8.45 26.9758 9.43 27.0658 10.42 27.1458C10.98 27.2058 11.54 27.2758 12.11 27.3258C14.61 27.5558 17.12 27.7058 19.63 27.8158C23.23 28.0558 26.83 28.2558 30.44 28.3758C33.2 28.4658 35.96 28.5358 38.71 28.5658C38.74 28.5658 38.75 28.5558 38.78 28.5558C40.86 28.6158 42.95 28.6758 45.03 28.7458C46.24 28.7058 47.45 28.6358 48.65 28.5758C50.31 28.4858 51.97 28.4058 53.64 28.3858C55.33 28.3658 57.01 28.4558 58.7 28.4658C62.03 28.4858 65.36 28.3358 68.68 27.9758C70.33 27.7958 71.95 27.4958 73.59 27.2958C74.37 27.2058 75.16 27.1758 75.95 27.1158C76.05 27.1058 76.15 27.0958 76.26 27.0858C76.35 27.1058 76.43 27.0958 76.52 27.0558C77.33 26.9758 78.13 26.8858 78.92 26.6958C79 26.6758 79.1 26.6558 79.2 26.6258C79.68 26.6458 80.15 26.5058 80.53 26.2058C80.79 26.0058 80.97 25.7358 81.1 25.4458C81.13 25.4258 81.15 25.4058 81.18 25.3858C81.22 25.4358 81.25 25.4658 81.28 25.4958ZM80.66 21.8458C79.15 23.3458 77.62 24.8158 76.03 26.2458C75.21 26.4458 74.3 26.3158 73.45 26.3458C75.35 23.9558 77.25 21.5558 79.14 19.1658C83.14 14.7458 86.38 9.71584 90.18 5.13584C91.42 3.64584 92.47 1.82585 94.67 1.40585C95.85 2.31585 95.6 3.31585 95.06 4.32585C94.09 6.17585 92.87 7.86584 91.48 9.43584C90.46 10.5958 89.44 11.7458 88.42 12.9058C85.64 16.0958 83.08 19.0458 80.66 21.8458ZM94.03 12.2458C91.96 13.5058 90.19 15.2858 87.8 16.0058C87.71 15.9758 87.65 15.9758 87.61 15.9658C88.85 14.4658 90.21 13.0558 91.57 11.6358C92.27 10.9058 92.96 10.1758 94.14 10.4258C94.83 11.0658 94.73 11.8058 94.03 12.2458ZM87.55 16.0358C87.56 16.0358 87.57 16.0458 87.57 16.0458L87.55 16.0358ZM65.4 46.3658C65.01 46.3258 64.79 46.2158 64.46 46.0358C64.99 44.4058 66.04 43.3358 67.61 42.0358C67.81 44.3158 66.41 45.1658 65.4 46.3658ZM70.05 39.2258C70.26 37.2258 70.26 37.2258 71.83 36.1758C71.99 37.7158 71.45 38.7158 70.05 39.2258Z" fill="#374151"/>
</svg>
