<svg width="94" height="96" viewBox="0 0 94 96" fill="none" xmlns="http://www.w3.org/2000/svg">
<path d="M29.1398 81.09C28.5998 81.46 28.1798 81.6 27.6298 81.15C27.5498 80.32 27.7698 79.73 28.7998 79.8C29.4098 80.06 29.4098 80.47 29.1398 81.09ZM24.5798 86.88C25.3798 86.46 25.5998 85.99 25.0498 85.36C23.6998 85.77 23.6998 85.77 24.5798 86.88ZM40.4198 81.71C40.3398 81.81 40.3398 82.06 40.4098 82.16C40.6898 82.51 40.9898 82.42 41.2498 81.91C40.9898 81.42 40.6798 81.37 40.4198 81.71ZM17.7198 85.24C17.1698 86.08 17.3898 86.53 18.1898 86.72C18.8498 86.42 19.2298 86.01 18.8698 85.27C18.5598 84.98 18.2298 84.98 17.7198 85.24ZM25.8198 46.94C25.6198 46.59 25.4398 46.43 24.9898 46.01C24.9698 47.11 23.7198 47.21 23.8398 48.39C25.0298 48.73 25.6798 48.34 25.8198 46.94ZM8.74977 83.56C8.76977 84.27 9.06977 84.53 9.74977 84.58C11.4598 83.33 11.4598 83.33 10.8298 81.98C9.95977 82.37 9.13977 82.77 8.74977 83.56ZM45.7898 83.68C44.8598 84.19 44.8998 84.88 45.6398 85.7C46.3398 85.67 46.4998 85.27 46.6698 84.64C46.6198 84.1 46.5498 83.75 45.7898 83.68ZM23.7098 42.01C22.9298 42.09 22.7498 42.47 23.0998 43.23C24.3998 43.21 24.0998 42.64 23.7098 42.01ZM73.5298 78.57C73.6598 79.21 73.9098 79.53 74.4798 79.5C75.1998 79.23 75.6198 78.79 75.2398 77.88C74.5298 77.55 73.9298 77.56 73.5298 78.57ZM84.5298 73.08C84.8498 74.61 85.1898 73.82 85.6298 73.35C85.3198 72.77 84.9998 72.8 84.5298 73.08ZM81.0098 80.86C81.4098 81.3 81.7598 81.14 82.1398 80.6C81.4698 79.84 81.4698 79.84 81.0098 80.86ZM93.5598 65.91C93.2598 72.23 91.7298 78.39 91.4498 84.69C91.3698 86.05 90.7898 87.12 89.8698 88.28C87.9998 90.16 85.8698 90.92 83.4898 91.32C76.4298 92.5 69.3198 92.36 62.1998 92.58C55.9098 92.78 49.6398 93.4 43.3498 93.78C37.3298 94.14 31.3798 95.23 25.3198 94.92C24.6098 94.88 23.8598 94.84 23.1598 94.98C18.5798 95.89 14.0098 94.91 9.43976 94.89C6.96976 94.88 5.49977 93.37 4.21977 91.64C2.42977 84.79 2.28977 77.68 0.00976562 70.73C0.139766 69.71 0.759766 68.61 1.38977 67.52C1.65977 67.05 1.93977 66.6 2.21977 66.14C2.36977 65.72 2.54977 65.31 2.70977 64.95C3.23977 63.77 4.01977 62.69 4.87977 61.7C7.86977 56.88 12.0998 53.61 17.5898 51.99C18.1298 50.77 18.1198 49.61 18.0998 48.44C18.0398 44.57 18.0298 40.7 18.4298 36.83C18.6198 35 19.3898 33.37 19.8098 31.63C19.9898 30.84 20.8298 30.66 21.3098 30.03C20.0998 22.78 19.0198 15.5 19.7498 8.28004C24.3998 4.53004 29.5398 2.44004 35.1098 1.60004C38.9198 1.03004 42.8198 0.890042 46.6798 0.710042C53.6098 0.380042 60.5498 0.420041 67.4798 0.820041C69.2698 0.920041 71.0598 1.14004 72.6998 1.84004C73.9898 3.12004 74.2298 4.75004 74.3898 6.36004C74.8298 10.94 75.0298 15.52 74.4098 20.11C74.2298 21.44 74.2398 22.8 74.1598 24.18C78.4598 27.26 78.5698 31.82 78.3798 36.36C78.2198 40.03 78.4198 43.74 77.0498 47.43C78.8798 47.85 80.3698 48.09 81.7998 48.52C89.1198 50.77 93.9398 58.28 93.5598 65.91ZM70.3398 29.55C66.7898 31.08 63.2598 32.65 59.6898 34.13C59.5398 34.21 59.3798 34.29 59.2198 34.34C59.1298 34.37 59.0398 34.4 58.9498 34.43C58.3598 34.67 57.7698 34.92 57.1698 35.16C53.9998 36.42 50.8498 37.69 47.9198 39.68C47.9598 44.11 48.6498 48.5 48.4198 53.43C48.5898 56.17 48.7598 58.92 48.9298 61.64C49.0398 61.71 49.1398 61.79 49.2298 61.87C56.0798 61.6 71.8198 53.29 75.7698 47.98C75.8998 47.09 75.9298 46.18 76.1698 45.32C77.0798 42.06 77.0898 38.71 76.9398 35.39C76.8198 32.94 76.0398 30.67 74.3098 29.12C72.7198 28.72 71.5198 29.02 70.3398 29.55ZM51.3398 20.09C51.1798 23.8 50.6298 27.48 50.2198 31.54C56.2398 29.61 61.6798 27.49 67.7698 26.01C68.8798 25.67 69.9898 25.31 71.1398 24.96C72.0498 24.23 72.7098 23.36 72.8698 22.08C73.6198 15.99 73.7298 9.93004 72.6698 3.75004C64.9498 2.67004 58.5798 5.76004 52.1598 8.47004C51.8698 12.54 51.5098 16.31 51.3398 20.09ZM21.4898 22.34C21.9298 24.79 22.0798 27.31 22.8998 29.63C31.5298 31 39.9398 32.26 48.4098 32.35C49.9998 26.89 51.0898 11.41 50.1398 8.27004C47.0498 7.43004 43.7898 7.44004 40.6098 6.88004C37.8498 6.40004 35.0598 6.23004 32.2698 6.15004C31.1698 6.12004 30.1298 6.25004 29.1098 6.47004C26.3398 6.62004 23.2598 6.45004 21.4598 8.82004C21.4098 8.83004 21.3698 8.85004 21.3198 8.86004C20.5798 10.61 20.7498 12.06 20.8398 13.49C21.0298 16.28 21.2298 19.07 21.4898 22.34ZM19.6798 51.46C19.7598 53.08 20.5198 54.38 22.1098 55.05C22.6798 55.29 23.2298 55.58 24.1898 56.01C26.3798 57.06 28.7198 57.63 31.0798 58.22C34.4998 59.07 38.0598 59.31 41.4498 60.36C43.4598 60.66 45.4698 60.92 47.4898 61.13C47.4998 61.13 47.4998 61.13 47.4998 61.13C47.1998 53.93 46.9298 46.99 46.6498 40.19C45.5398 39.55 44.7298 38.94 43.8198 38.59C40.1398 37.14 36.5298 35.53 32.9598 33.82C30.9298 32.84 28.7698 32.26 26.6098 31.63C24.7598 31.1 23.0998 31.17 21.4398 32.05C20.6898 33.24 20.1598 34.46 19.9798 35.83C19.2798 41.03 19.3998 46.24 19.6798 51.46ZM91.8098 62.18C90.0598 62.49 88.2998 62.87 86.5298 63.1C78.5098 64.15 70.4698 65.01 62.4898 66.34C55.1298 67.56 47.6898 68.21 40.2698 69.01C37.7298 69.28 35.1998 69.54 32.6598 69.82C30.0098 70.21 27.3598 70.51 24.6998 70.75C18.1698 71.5 11.5798 71.4 5.06977 72.35C4.37977 72.46 3.64977 72.34 2.49977 72.4C2.00977 72.98 2.25977 73.6 2.42977 74.18C2.77977 75.4 2.82977 76.67 3.05977 77.9C3.77977 81.79 4.08977 85.75 5.04977 89.6C5.43977 91.15 6.14977 92.44 7.67977 93.17C13.1398 93.82 18.5798 93.79 24.0898 93.65C32.9098 93.41 41.6698 92.33 50.4698 91.92C55.2398 91.69 59.9698 91 64.7598 91.14C67.9998 91.23 71.2598 91.22 74.4898 90.99C77.9798 90.74 81.4798 90.59 84.8898 89.61C87.3698 88.9 89.2298 87.5 90.2298 85.21C90.4098 82.84 90.4398 80.6 90.8398 78.37C91.6698 73.76 92.2298 69.12 92.3898 64.44C92.4198 63.68 92.6198 62.81 91.8098 62.18ZM67.8198 83.11C69.0798 83.51 69.5498 83.11 69.3398 81.75C68.4598 81.89 67.3898 81.43 67.8198 83.11ZM48.1698 78.51C47.2998 78.9 46.7998 79.35 47.3298 80.34C48.2298 80.48 49.1398 80.63 49.5298 79.51C49.3898 78.69 48.8998 78.55 48.1698 78.51ZM55.2298 82.52C56.3098 83.51 56.3098 83.51 56.5298 81.89C55.7698 81.66 55.3498 81.87 55.2298 82.52ZM65.9098 76.06C65.0298 76.11 64.8698 76.83 64.6298 77.66C65.3698 78.52 65.9398 78.21 66.3598 77.54C66.7298 76.94 66.6298 76.39 65.9098 76.06ZM45.8798 18.98C46.0498 18.47 45.9698 18.16 45.5098 18.15C45.2198 18.14 45.0398 18.31 45.0398 18.6C45.0298 19.07 45.3598 19.13 45.8798 18.98ZM70.4798 17.69C69.6498 18.27 68.8898 18.65 69.6798 19.75C70.7998 19.39 71.0898 18.78 70.4798 17.69ZM68.0798 15.37C67.7898 14.92 67.4498 14.91 66.9198 15.08C66.4998 15.53 66.1698 15.87 66.6198 16.45C67.5798 16.74 67.9898 16.26 68.0798 15.37ZM57.8698 16.91C58.0898 16.33 58.0698 15.91 57.5198 15.76C56.8298 15.8 56.5998 16.15 56.7698 16.77C57.0498 17.1 57.3798 17.13 57.8698 16.91ZM69.9098 42.94C70.2798 43.4 70.6198 43.4 71.1198 43.25C71.7298 42.82 72.0498 42.44 71.4398 41.79C70.5598 41.7 70.1898 42.28 69.9098 42.94ZM62.1898 21.08C62.8198 20.77 63.2598 20.49 63.0698 19.83C62.3598 19.32 61.7798 19.38 61.3398 20.15C61.2698 20.7 61.5398 20.99 62.1898 21.08ZM56.2698 46.85C55.1898 46.91 55.0098 47.55 55.1198 48.35C55.4098 48.74 55.7198 48.79 56.2398 48.59C57.0198 47.9 57.0498 47.35 56.2698 46.85ZM64.3698 42.36C64.3898 41.41 63.8998 41.25 63.3398 41.55C62.7998 41.83 62.6698 42.35 63.0798 42.82C63.6298 43.16 63.9798 42.91 64.3698 42.36ZM63.1798 46.95C64.3798 47.03 64.6698 46.54 64.2298 45.48C63.3398 45.62 62.7798 45.86 63.1798 46.95ZM26.4298 18.05C25.5198 18.37 25.4598 18.88 26.0498 19.56C26.9998 19.14 27.1598 18.64 26.4298 18.05ZM42.7598 51.12C43.0098 51.03 43.1498 50.77 43.0498 50.51C42.8898 50.14 42.5798 50.08 42.1198 50.39C41.9598 51.11 42.2398 51.3 42.7598 51.12ZM36.4998 50.78C35.8498 50.08 35.2898 50.27 34.6198 50.75C35.3198 52.24 35.8998 51.85 36.4998 50.78ZM33.6098 47.74C33.7498 47.32 33.9398 46.86 33.3898 46.47C32.9898 46.37 32.7598 46.6 32.4998 47.07C32.5098 48.02 32.9298 48.05 33.6098 47.74ZM56.7298 21.5C56.5898 20.96 56.1898 20.83 55.5598 20.88C54.9498 21.29 55.0098 21.65 55.4198 22.03C56.0098 22.22 56.4698 22.11 56.7298 21.5ZM28.3198 22.63C28.4398 21.96 28.0898 21.63 27.5298 21.47C26.9798 21.49 26.7198 21.79 26.6798 22.49C27.2898 23.11 27.8298 23.28 28.3198 22.63ZM42.1698 21.56C41.2498 22.06 40.6898 22.55 41.4698 23.42C43.2398 22.73 43.2398 22.73 42.1698 21.56ZM36.3398 19.8C37.2398 19.53 37.5598 19.1 37.1798 18.34C36.5098 17.87 35.8998 17.9 35.3498 18.61C35.2998 19.2 35.4898 19.63 36.3398 19.8Z" fill="#374151"/>
</svg>
