<svg width="133" height="80" viewBox="0 0 133 80" fill="none" xmlns="http://www.w3.org/2000/svg">
<path d="M130.201 7.65178C123.951 8.86319 120.421 13.7088 116.921 18.5851C116.432 18.6618 115.943 18.7231 115.454 17.9104C115.943 15.7176 115.087 13.4941 114.094 11.3933C115.209 10.0439 117.196 10.1053 117.991 8.46449C116.218 6.37904 114.552 9.30788 112.871 8.61784C112.504 6.70106 114.246 5.99568 114.919 4.5696C114.827 3.63421 115.576 2.2388 113.757 1.94745C112.321 3.06684 112.627 5.24431 111.083 6.10302C110.044 5.76567 110.105 4.00223 108.546 4.63094C107.4 6.13369 109.432 7.25309 109.173 8.92452C106.529 8.14248 104.496 9.21587 102.433 10.872C100.416 12.4821 99.4071 14.7055 98.0928 17.0057C95.6476 14.9815 92.9273 15.3956 90.0695 15.6102C90.2987 13.2488 88.1897 12.3901 87.288 10.8566C89.2748 7.9738 91.0017 7.42177 93.9207 8.31115C96.1214 8.98586 98.1234 10.0746 100.125 11.1787C100.721 10.7493 101.119 10.3813 100.981 9.64523C100.874 9.0932 99.9726 8.84785 100.416 8.11181C103.747 6.63972 103.747 6.63972 103.702 4.89162C101.959 4.6616 100.767 6.54772 99.0251 6.2257C98.2609 4.35492 100.783 2.65282 99.4377 0.659369C97.6191 1.1654 98.1998 3.46554 96.6104 3.9409C95.9991 2.8675 96.9466 1.62543 95.9227 0.582699C93.0954 1.59476 95.5253 4.32425 94.2569 5.96501C91.5977 4.64627 89.3053 6.82373 86.692 6.74706C84.5678 4.86095 82.4893 2.9595 79.3564 2.57615C75.9942 2.16212 74.1756 4.81495 71.7151 5.735C70.5842 7.19175 70.3244 8.97053 68.9184 10.2279C67.436 7.91246 67.5888 5.06029 65.6938 2.83683C63.432 5.38231 66.5955 7.42177 65.8772 9.7219C64.2419 9.20054 63.5695 7.20709 62.2858 7.05374C60.8492 7.09975 61.1549 8.23448 60.3143 8.57184C59.3057 6.94641 57.3801 6.8544 55.8365 6.16436C55.3933 0.904717 55.3933 0.90472 54.0638 0C52.5355 1.2114 54.2166 3.25086 53.1621 4.58493C51.0531 3.84889 51.481 1.30341 49.7388 0.383356C47.8896 2.66816 50.4418 4.27825 50.564 6.3177C49.0052 6.99241 47.4311 7.60578 45.964 8.46449C44.344 9.41522 44.3746 11.4087 43.0297 12.7274C41.0736 10.9946 38.5061 10.8106 36.336 10.0439C36.2137 7.74379 38.7506 6.47105 37.8642 4.07891C34.7772 4.67694 35.5107 8.24982 33.5393 9.58389C32.3014 7.95847 32.7446 5.70433 30.8495 4.5236C29.3213 5.781 30.9871 7.20709 30.4828 8.6025C29.1226 8.52583 27.9917 6.86973 26.5093 8.26515C27.0289 10.0899 29.3213 9.93658 30.3605 11.5007C28.5877 12.7734 27.5485 14.4755 26.3106 16.1163C24.1252 15.7636 21.9857 16.7143 19.9225 16.3616C19.0361 14.2762 20.488 11.9914 18.7763 10.1666C16.8049 11.562 18.1803 13.8775 17.2022 15.3649C15.2308 15.5796 15.46 12.7887 13.6261 13.0188C12.6174 13.6475 12.8772 14.5368 13.1218 15.5336C14.6347 16.3616 15.8421 17.619 17.1258 19.3058C14.8181 19.6431 12.6786 17.573 10.7988 19.5358C11.5935 21.8359 14.0387 20.2105 15.3377 21.6979C14.8181 23.078 13.6108 23.7374 12.6022 24.6268C9.17886 21.7133 5.70972 19.2751 1.21665 19.9345C-0.464434 21.3606 -0.174065 22.7407 0.712323 24.4121C7.23798 27.663 10.5543 33.4746 12.0367 40.421C12.862 41.4638 14.1763 41.2337 15.1391 41.9698C16.3158 44.6226 17.4009 47.4288 18.7763 50.0969C20.488 53.4091 22.8262 56.154 26.005 58.3161C28.8628 60.2635 32.225 60.9689 35.1287 62.717C37.2988 64.0204 39.6829 64.6645 42.2198 64.9098C44.6344 65.1398 47.0185 65.6918 49.5248 66.1212C45.1387 74.141 44.2523 76.6865 45.047 79.232C49.9833 79.9067 55.0724 80.3054 60.1156 79.7073C66.3815 78.9713 72.6474 78.5113 78.9132 78.0819C84.3844 77.7139 89.7944 76.9318 95.0363 75.6744C96.8702 73.1903 96.9619 71.2275 95.1739 69.096C93.6456 67.2866 92.6064 65.1858 90.8947 62.8397C93.5539 62.625 95.7087 62.3336 97.6802 61.3369C101.715 59.2975 105.444 56.7827 108.959 53.9612C112.55 51.0783 115.27 47.5975 116.478 43.0279C117.165 40.421 118.251 37.9216 118.724 35.0387C122.469 34.2567 123.217 31.5885 122.835 28.2303C122.637 26.4822 123.172 24.8568 124.012 23.3387C124.898 21.7439 126.152 20.4405 127.359 19.1065C128.979 17.3277 130.828 15.7483 132.112 13.6935C133.701 11.148 133.212 9.47655 130.201 7.65178ZM12.0673 33.398C10.1722 29.1964 7.49778 25.6848 3.38677 23.4154C2.88245 23.1394 2.28643 22.8787 2.33228 22.1426C2.46982 21.9893 2.59208 21.7593 2.72962 21.7593C6.64196 21.7286 11.7463 25.0868 12.6022 28.6443C13.1218 30.8218 12.9995 33.1679 13.6108 35.6061C12.648 35.3454 12.4646 34.272 12.0673 33.398ZM13.8248 37.4462C13.3816 37.0782 13.6108 36.6181 13.6414 36.0048C13.6567 35.9434 13.6567 35.9281 13.6567 35.9128C13.6567 35.8974 13.6414 35.8821 13.6414 35.8668C13.6567 35.8514 13.6567 35.8668 13.6567 35.9128C13.8095 36.4188 14.1915 36.8788 13.8248 37.4462ZM95.5559 17.9104C96.1367 18.5851 96.7785 19.3365 97.2676 19.9038C97.9553 21.7286 97.5274 23.5534 98.3679 25.0408C99.453 25.5162 99.9726 25.0561 100.171 24.1054C100.248 23.7221 100.232 23.2927 100.141 22.9093C99.3307 19.7658 100.278 16.9903 102.066 14.1842C102.846 13.3714 103.442 12.6814 104.129 12.0987C105.795 10.688 107.629 10.2433 109.662 11.3473C110.961 12.0527 112.474 12.4514 113.513 13.9848C113.666 15.6409 113.819 17.5117 114.002 19.4898C112.138 21.6979 109.448 22.6793 106.926 23.7834C102.311 25.8075 88.4495 29.0277 85.8668 28.8897C85.5764 27.9543 86.0043 27.1263 86.3711 26.3289C86.9213 25.1481 87.3033 23.9367 87.5937 22.6487C88.5107 18.6311 91.2921 17.021 95.5559 17.9104ZM88.6635 16.8677C88.0216 17.7724 87.3492 18.7384 86.6156 19.7812C85.0874 19.0758 84.7053 17.4197 83.6661 16.6376C82.9172 16.6376 82.581 16.9443 82.4129 17.5577C82.2754 18.5698 83.3146 19.1985 83.5897 20.1185C82.5352 20.9772 81.1139 19.4591 80.2275 20.9772C80.9916 22.4646 82.8255 22.1426 83.987 22.9707C83.6814 23.8141 82.9325 23.7987 82.3212 23.9981C81.6641 24.2127 80.9763 24.3508 80.4567 24.4734C79.4175 24.3048 79.0813 23.446 78.2408 22.894C77.2321 22.066 76.3916 21.3606 75.276 20.4405C77.0334 17.619 76.6208 13.8315 79.4481 11.5467C84.3232 10.9026 86.0349 11.884 88.6635 16.8677ZM82.092 26.5129C82.474 25.7462 83.1923 25.7768 83.9717 25.7308C84.8581 26.8042 83.2687 28.077 84.7053 29.1504C78.1644 30.0244 72.2347 31.5425 66.2134 31.6959C64.8991 26.7736 66.1523 23.8754 70.3702 21.8973C71.5929 21.8053 72.5862 21.7593 73.5796 21.7133C76.9112 23.3847 79.2189 26.1295 81.4348 28.813C82.3059 29.0277 82.6421 28.5677 82.8867 28.031C83.0548 27.2643 82.1073 27.1569 82.092 26.5129ZM77.278 4.78428C81.068 4.14024 83.6661 6.34837 86.4322 7.89713C86.6309 8.72518 86.4169 9.35388 86.0196 10.1359C84.6594 9.46122 83.284 9.41522 81.9391 9.15453C80.1052 8.80185 78.5311 9.1852 77.3238 10.5193C76.5291 11.424 75.6733 11.5313 74.4048 11.24C73.8394 10.9946 73.5032 10.8106 73.0905 10.5806C73.2587 7.57511 74.8633 5.781 77.278 4.78428ZM69.1476 12.7887C71.3483 12.0834 73.6407 11.884 75.2607 14.4142C74.9092 16.3003 74.7563 18.0331 73.4268 19.6891C69.2088 19.0604 66.1217 20.9619 64.3489 24.7801C63.3556 25.1481 62.8359 24.6728 62.3163 24.2281C61.7203 18.3704 64.028 14.3835 69.1476 12.7887ZM58.3887 26.8656C59.5349 26.3135 60.513 26.7582 61.7203 26.7889C62.5456 26.9882 62.9888 27.3563 63.3403 27.939C63.432 29.089 63.3861 30.2698 63.1722 31.3125C62.1177 32.0639 61.0937 31.7725 60.1309 31.7572C59.1376 31.7419 58.1595 31.6039 56.998 31.5118C57.0744 29.7024 58.2665 28.3683 58.3887 26.8656ZM56.2492 21.4986C57.105 20.3179 58.2206 20.5479 59.2598 20.5019C60.3907 23.3234 60.3602 23.6147 58.4957 24.9028C57.1203 24.0287 57.0133 22.5567 56.2492 21.4986ZM64.4406 11.746C64.6393 11.9147 64.6851 12.2367 64.1808 12.4361C63.3861 12.1447 63.0499 11.6693 63.0346 10.9486C63.7529 10.8413 64.0585 11.378 64.4406 11.746ZM53.7428 8.35715C55.2099 8.12714 56.3867 8.26515 57.6246 8.64851C59.3515 10.3199 61.3688 11.8074 62.9582 13.8928C62.5303 15.3649 61.3994 16.4076 60.7881 17.711C59.3362 18.6924 57.7621 18.5544 56.0963 18.5851C56.5242 16.7143 59.5196 16.2696 58.4346 13.8315C56.7382 13.6168 56.1575 15.0429 55.103 15.7329C53.8651 14.8435 55.2558 12.8654 53.483 12.0527C51.374 13.5095 53.1621 15.9783 52.1229 17.803C49.8916 17.4043 47.9049 16.0089 45.5972 16.607C44.9248 10.688 48.4398 8.18848 53.7428 8.35715ZM54.5222 22.94C56.8757 26.6662 56.7688 27.893 53.6206 31.4965C47.1102 31.1438 40.5387 30.5611 34.1811 29.3651C33.8449 28.6903 34.0742 28.353 34.4257 27.847C34.93 28.031 35.2051 28.491 35.8775 28.4143C36.6111 28.0463 36.7639 27.2183 37.0237 26.4976C37.849 24.1667 39.3772 22.3113 41.2111 20.7625C45.2763 17.3123 51.6338 18.3857 54.5222 22.94ZM37.4669 12.6047C40.5998 12.9574 42.0669 14.2302 42.556 17.2203C39.3314 19.9805 35.7705 22.6793 34.7313 27.5403C34.6549 27.617 34.6243 27.663 34.6243 27.6936C34.6243 27.709 34.6243 27.7243 34.6243 27.7396C34.6091 27.7243 34.6091 27.7243 34.6243 27.6936C34.4104 23.0934 32.0874 19.6738 28.496 17.0363C30.116 13.0188 32.1791 12.022 37.4669 12.6047ZM19.7391 19.2445C25.9897 16.4536 29.2602 19.5665 31.8123 24.1054C32.607 25.5315 32.6223 27.1569 31.629 28.7977C26.2495 28.5983 21.5272 26.3595 16.3005 23.9214C17.9205 22.4953 18.5776 20.8392 19.7391 19.2445ZM19.5404 27.6169C23.8348 29.7484 28.2515 30.5458 32.6987 31.2358C42.1281 32.7079 51.6033 33.812 61.1701 33.812C65.2506 33.812 69.331 33.6433 73.3962 32.9073C78.7909 31.9259 84.3385 31.7572 89.6721 30.5611C97.237 28.8744 105.001 27.6476 111.832 23.584C113.177 22.7867 114.537 22.0046 116.065 21.1152C116.371 22.572 115.454 23.1394 114.751 23.7527C111.159 26.8656 107.125 29.2424 102.54 30.5611C99.5752 31.4198 96.6104 32.3246 93.6456 33.1986C91.0781 33.95 88.3273 33.8886 85.6528 34.1493C79.4022 34.778 73.0905 34.8854 66.84 35.5141C59.5502 36.2501 52.2757 35.9741 45.0012 35.5141C44.6955 35.4987 44.3899 35.4374 44.0995 35.4987C39.9732 36.4801 36.2749 34.7627 32.4695 33.6586C27.6861 32.2632 22.9332 30.7605 18.1192 29.4417C16.1936 28.9204 15.0321 27.8163 14.2068 25.9148C16.3464 25.5315 17.676 27.0496 19.5404 27.6169ZM94.7001 72.7763C93.2024 74.2483 91.2004 74.509 89.2901 74.739C84.1398 75.3524 78.9896 75.8124 73.8241 76.3338C69.7589 76.7478 65.6938 77.1312 61.6286 77.5299C57.5482 77.9286 53.4677 77.8366 49.372 77.6832C48.2564 77.6372 47.0032 77.5759 46.56 75.9044C52.2146 76.1038 57.594 76.2725 63.2639 76.4411C73.3198 75.9044 82.9784 74.601 92.4383 72.1016C93.3247 71.8715 94.1499 71.3655 94.7001 72.7763ZM92.4535 69.4027C92.1326 70.3688 91.2615 70.4761 90.5127 70.6141C83.88 71.8715 77.3238 73.681 70.4925 73.819C67.3137 73.8803 64.135 74.8771 60.9562 74.4477C57.8691 74.0183 54.782 74.2637 51.7102 74.141C50.5335 74.095 49.3262 74.4477 47.9202 74.0183C48.8524 71.2888 50.1056 68.774 51.4046 66.1212C57.8233 66.4279 64.1808 66.2439 70.8287 65.9985C76.8195 65.1398 82.5352 64.3424 88.0216 63.5604C90.3446 65.1398 91.6283 67.1179 92.4535 69.4027ZM116.004 37.7989C115.912 38.1822 115.698 38.5503 115.637 38.9489C114.262 47.7508 108.072 52.6731 101.21 57.1353C97.4968 59.5582 93.3705 60.6622 89.1372 61.3062C78.3783 62.947 67.6194 64.7718 56.6771 64.1891C50.7169 63.8824 44.7261 63.5604 38.9035 61.981C37.6197 61.6283 36.4124 61.2603 35.3273 60.5089C33.6615 59.3588 31.7818 58.6381 29.9479 57.8714C25.5771 56.0313 22.597 52.8878 20.4421 48.7168C17.5996 43.2272 16.2547 37.2775 14.7876 31.3585C14.7264 31.0978 14.864 30.7911 14.9251 30.3311C17.355 30.6685 19.4335 31.8799 21.7106 32.4779C26.8149 33.7966 31.8276 35.4681 36.8862 36.9708C38.338 37.4002 39.8051 37.6609 41.3334 37.4155C43.1214 37.0935 44.9095 37.2775 46.9879 37.4922C49.1733 37.5995 51.0684 37.6915 52.9634 37.7989C60.5741 38.2589 68.1084 36.9862 75.6886 36.7561C81.2973 36.5875 86.8296 35.6674 92.423 35.4834C94.1805 35.4221 95.6935 34.6094 97.3134 34.1187C102.25 32.6006 107.415 31.6345 111.771 28.5677C113.207 27.5556 114.674 26.5742 116.203 25.5468C116.447 25.9455 116.738 26.1755 116.722 26.4209C116.707 30.2238 116.906 34.042 116.004 37.7989ZM130.752 12.0374C130.431 12.9114 129.804 13.5555 129.178 14.1995C127.848 15.5642 126.473 16.8677 125.158 18.2477C122.255 21.3452 120.253 24.8108 120.65 29.273C120.711 30.1471 120.879 31.0978 120.084 32.0485C119.611 32.2019 119.336 32.2019 119.152 32.2019C119.152 28.997 119.091 25.8228 119.183 22.6487C119.213 21.5446 119.901 20.5785 120.573 19.7045C123.324 16.1316 126.656 13.1261 130.033 10.2433C131.011 10.6573 131.011 11.3013 130.752 12.0374ZM56.8146 5.06029C56.3561 4.00223 57.1508 3.22019 57.5635 2.16213C58.1289 1.25741 58.4498 0.398689 59.5043 0.322017C59.6725 3.3582 58.9083 4.70761 56.8146 5.06029ZM52.5049 50.2349C52.2451 51.569 51.8325 52.6117 50.1973 52.8418C48.4551 52.1517 48.1953 51.0937 48.9594 49.6829C50.3195 48.8855 51.4199 49.1769 52.5049 50.2349ZM77.171 55.6172C76.6361 56.338 75.872 56.7827 75.1231 57.0433C74.3437 56.9667 73.9464 56.5833 73.7171 55.8779C74.0686 54.3445 75.1231 53.7005 76.8806 53.7925C77.9046 54.4059 77.5836 55.0652 77.171 55.6172ZM75.0467 52.1824C73.9158 52.7498 73.1364 52.5811 72.6015 51.8604C72.1889 50.5723 72.9836 50.0816 73.9158 49.4529C74.7105 49.1002 75.2607 49.0542 75.7191 49.6522C76.1318 50.741 75.4135 51.4923 75.0467 52.1824ZM30.223 46.2174C30.0243 47.6435 29.5047 48.6402 28.0681 48.7322C26.9372 48.0575 26.708 47.1528 27.1359 46.0027C28.2057 45.328 29.1685 45.236 30.223 46.2174ZM96.0602 47.9348C94.9293 47.0608 95.0363 46.1407 95.7393 45.2053C96.9161 44.7453 97.4968 45.3587 98.0775 46.3707C98.0317 47.9501 97.0994 48.0268 96.0602 47.9348ZM51.9548 54.6205C52.8106 56.43 51.8936 56.844 50.6099 56.9973C49.7235 56.4453 49.4331 55.7706 49.8611 54.9426C50.3042 54.0838 50.992 53.9458 51.9548 54.6205ZM103.931 42.8132C104.022 44.2086 104.129 45.512 102.005 45.65C101.333 43.3192 101.547 43.0125 103.931 42.8132ZM28.8781 50.833C29.6117 51.753 29.7492 52.5657 29.0615 53.3785C28.0375 53.8998 27.411 53.3938 26.8914 52.4737C27.0136 51.431 27.4568 50.6643 28.8781 50.833ZM34.8077 46.6314C34.8841 47.5514 35.2662 48.6095 33.8296 49.3456C32.3778 48.6402 32.4695 47.6128 32.7751 46.5701C33.4476 45.972 34.0436 45.9414 34.8077 46.6314ZM30.4369 41.0344C30.8954 42.8745 30.0243 43.2425 28.8017 43.1352C27.8694 42.5678 27.8847 41.9085 28.0987 41.2031C28.7405 40.5744 29.4741 40.5437 30.4369 41.0344ZM72.0819 44.8526C71.9902 43.3039 72.7543 42.8132 73.9311 42.8132C74.8022 43.7332 74.4813 44.5153 74.0075 45.282C73.3045 45.742 72.7085 45.6653 72.0819 44.8526ZM57.2425 48.9009C57.0439 50.1276 57.2884 51.6917 54.996 50.8483C55.1335 48.4408 55.1335 48.4408 57.2425 48.9009ZM80.1969 51.0017C77.9351 50.8483 77.8587 50.7103 79.0049 48.4102C81.2667 48.6095 80.6707 49.8056 80.1969 51.0017ZM46.4836 51.3543C45.8876 52.2744 45.1693 52.4737 44.1607 51.569C44.0384 50.3116 44.4969 49.6829 45.5667 49.5909C46.3766 49.9282 46.4836 50.603 46.4836 51.3543ZM93.1413 46.9994C92.6217 48.1341 91.827 48.4868 90.5585 47.9655C90.2987 47.2908 90.2376 46.8001 90.6961 46.1867C91.613 45.7573 92.5605 45.5427 93.1413 46.9994ZM23.7584 45.0826C24.8435 46.202 24.385 46.9074 23.4222 47.5208C22.1385 47.5514 21.6953 46.8767 21.7106 45.8033C22.1538 44.9293 22.8568 44.9906 23.7584 45.0826ZM48.5773 46.0334C47.6909 43.9479 47.7673 43.8712 50.5946 44.0706C51.0531 45.6653 50.182 46.0947 48.5773 46.0334ZM112.29 41.9085C111.633 43.0125 110.854 43.4419 109.784 43.0585C109.112 42.1998 109.463 41.5251 110.258 41.1724C111.007 40.8197 111.954 40.3444 112.29 41.9085ZM96.045 41.8318C94.1652 41.6018 94.3639 40.5284 94.7001 39.3323C96.9008 39.7923 96.9008 39.7923 96.045 41.8318ZM98.5666 50.1429C99.1015 51.385 98.6124 51.9524 97.6802 52.1977C96.748 52.0904 96.4423 51.5537 96.427 50.7716C96.7938 49.8056 97.5732 49.8822 98.5666 50.1429ZM69.3463 52.4891C68.3835 51.5383 68.3224 50.741 69.3158 49.8056C71.2108 50.7103 70.355 51.477 69.3463 52.4891Z" fill="#374151"/>
</svg>
