<svg width="82" height="82" viewBox="0 0 82 82" fill="none" xmlns="http://www.w3.org/2000/svg">
<path d="M51.25 1.29C51.25 1.29 51.25 1.29 51.24 1.29C47.91 0.43 44.46 0 41 0C18.39 0 0 18.39 0 41C0 63.61 18.39 82 41 82C44.46 82 47.9 81.57 51.24 80.71C51.24 80.71 51.24 80.71 51.25 80.71C69.36 76.05 82 59.72 82 41C82 22.28 69.35 5.95 51.25 1.29ZM2 41C2 19.5 19.5 2 41 2C43 2 44.99 2.17 46.96 2.47C30.91 8.3 20 23.62 20 41C20 58.38 30.91 73.69 46.96 79.53C44.99 79.83 43 80 41 80C19.5 80 2 62.5 2 41Z" fill="black"/>
</svg>
