<svg width="81" height="81" viewBox="0 0 81 81" fill="none" xmlns="http://www.w3.org/2000/svg">
<path d="M16.1151 48.8032H32.4061C32.0671 49.4682 31.7771 50.1662 31.5441 50.8952C30.3451 50.3882 29.0571 50.1242 27.7591 50.1242C23.6601 50.1242 20.0041 52.7032 18.5871 56.4932C18.2521 56.4632 17.9371 56.4482 17.6281 56.4482C10.8591 56.4482 5.35214 61.9552 5.35214 68.7242C5.35214 75.4932 10.8591 81.0002 17.6281 81.0002H55.5171C55.6151 81.0002 55.7101 80.9842 55.8001 80.9572C61.5451 80.5302 66.0131 75.7442 66.0131 69.9622C66.0131 65.0222 62.7471 60.7422 58.0971 59.3802C58.5271 58.0232 58.7441 56.6162 58.7441 55.1852C58.7441 52.8842 58.1741 50.7182 57.1831 48.8032H66.4941C66.6021 48.8032 66.7061 48.7842 66.8051 48.7492C74.2931 48.2162 80.1221 41.9852 80.1221 34.4552C80.1221 26.7682 74.0461 20.4752 66.4451 20.1232C66.6641 19.0622 66.7741 17.9902 66.7741 16.9222C66.7741 8.10322 59.5991 0.928223 50.7801 0.928223C44.5071 0.928223 38.8161 4.64522 36.2381 10.2982C34.2361 9.05622 31.9601 8.40522 29.5851 8.40522C24.1881 8.40522 19.3831 11.8552 17.6111 16.8962C17.0801 16.8402 16.5911 16.8142 16.1131 16.8142C7.29414 16.8142 0.119141 23.9892 0.119141 32.8082C0.119141 41.6272 7.29614 48.8032 16.1151 48.8032ZM64.0141 69.9622C64.0141 74.7572 60.2601 78.7162 55.4671 78.9742C55.4071 78.9782 55.3491 78.9872 55.2931 79.0002H17.6281C11.9611 79.0002 7.35214 74.3902 7.35214 68.7242C7.35214 63.0582 11.9621 58.4482 17.6281 58.4482C18.0811 58.4482 18.5611 58.4882 19.1371 58.5732C19.6381 58.6422 20.1131 58.3372 20.2471 57.8492C21.1771 54.4782 24.2661 52.1232 27.7591 52.1232C29.1281 52.1232 30.4841 52.4942 31.6811 53.1972C31.9571 53.3592 32.2921 53.3802 32.5851 53.2522C32.8781 53.1252 33.0931 52.8662 33.1631 52.5552C34.3961 47.0732 39.1831 43.2442 44.8031 43.2442C51.3871 43.2442 56.7441 48.6002 56.7441 55.1842C56.7441 56.7432 56.4431 58.2672 55.8491 59.7132C55.7351 59.9922 55.7521 60.3092 55.8971 60.5732C56.0421 60.8372 56.2991 61.0222 56.5961 61.0772C60.8951 61.8562 64.0141 65.5932 64.0141 69.9622ZM16.1151 18.8142C16.7381 18.8142 17.3901 18.8682 18.1711 18.9832C18.6641 19.0492 19.1471 18.7472 19.2811 18.2592C20.5561 13.6342 24.7941 10.4052 29.5871 10.4052C31.9501 10.4052 34.1971 11.1712 36.0871 12.6212C36.3391 12.8142 36.6701 12.8752 36.9761 12.7872C37.2821 12.6972 37.5271 12.4672 37.6361 12.1672C39.6361 6.64122 44.9191 2.92822 50.7821 2.92822C58.4981 2.92822 64.7761 9.20522 64.7761 16.9222C64.7761 18.2372 64.5841 19.5622 64.2041 20.8572C64.1141 21.1672 64.1781 21.5022 64.3771 21.7552C64.5761 22.0082 64.8831 22.1572 65.2071 22.1372L65.4571 22.1222C65.5621 22.1152 65.6681 22.1072 65.7761 22.1072C72.5851 22.1072 78.1241 27.6462 78.1241 34.4552C78.1241 41.0072 72.9951 46.4152 66.4471 46.7672C66.3761 46.7712 66.3071 46.7842 66.2411 46.8022H55.9181C53.3711 43.4342 49.3441 41.2432 44.8051 41.2432C40.2761 41.2432 36.2151 43.3772 33.6571 46.8022H16.1151C8.39914 46.8022 2.12114 40.5252 2.12114 32.8082C2.12114 25.0912 8.39914 18.8142 16.1151 18.8142Z" fill="black"/>
</svg>
