<svg width="83" height="81" viewBox="0 0 83 81" fill="none" xmlns="http://www.w3.org/2000/svg">
<path d="M70.4166 15.8109C69.1246 8.50586 62.7336 3.08986 55.2436 3.08986C50.4476 3.08986 46.0256 5.27586 43.1126 9.01086C39.9546 3.55286 34.0826 0.109863 27.7156 0.109863C18.0316 0.109863 10.1306 7.88486 9.92464 17.5209C4.14864 19.2839 0.181641 24.5869 0.181641 30.6889C0.181641 38.2909 6.36564 44.4739 13.9666 44.4739C17.9086 44.4739 21.6126 42.7919 24.2096 39.8949C26.9426 47.4029 34.0856 52.4939 42.2106 52.4939C49.9896 52.4939 56.9256 47.8209 59.8936 40.7259C62.2746 42.4929 65.1596 43.4519 68.1566 43.4519C75.8286 43.4519 82.0706 37.2109 82.0706 29.5389C82.0696 22.6689 77.1126 16.8979 70.4166 15.8109ZM68.1566 41.4509C65.1746 41.4509 62.3226 40.3419 60.1256 38.3259C59.8766 38.0969 59.5286 38.0109 59.1996 38.0959C58.8716 38.1809 58.6086 38.4259 58.5016 38.7469C56.1566 45.7719 49.6106 50.4929 42.2106 50.4929C34.3386 50.4929 27.4956 45.1569 25.5686 37.5179C25.4716 37.1339 25.1576 36.8429 24.7686 36.7769C24.7116 36.7669 24.6556 36.7619 24.5996 36.7619C24.2686 36.7619 23.9546 36.9259 23.7676 37.2069C21.5716 40.5039 17.9076 42.4729 13.9666 42.4729C7.46864 42.4729 2.18164 37.1859 2.18164 30.6879C2.18164 25.2419 5.88064 20.5389 11.1766 19.2499C11.6336 19.1389 11.9506 18.7249 11.9396 18.2549C11.9386 18.1829 11.9336 18.1099 11.9286 18.0389L11.9216 17.9029C11.9216 9.19386 19.0066 2.10786 27.7156 2.10786C33.8726 2.10786 39.5086 5.73786 42.0756 11.3559C42.2286 11.6909 42.5546 11.9149 42.9226 11.9379C43.2996 11.9579 43.6416 11.7809 43.8356 11.4659C46.3076 7.47186 50.5726 5.08786 55.2446 5.08786C61.9886 5.08786 67.7086 10.1329 68.5496 16.8239C68.6076 17.2839 68.9746 17.6439 69.4356 17.6929C75.4986 18.3389 80.0716 23.4299 80.0716 29.5359C80.0696 36.1069 74.7256 41.4509 68.1566 41.4509Z" fill="black"/>
<path d="M22.5926 49.9509C22.0576 49.8069 21.5106 50.1239 21.3676 50.6579L16.1976 69.9529C16.0546 70.4859 16.3706 71.0349 16.9046 71.1779C16.9916 71.2009 17.0786 71.2119 17.1636 71.2119C17.6046 71.2119 18.0096 70.9179 18.1286 70.4709L23.2986 51.1759C23.4426 50.6429 23.1266 50.0939 22.5926 49.9509Z" fill="black"/>
<path d="M15.7456 79.3679L16.9546 74.8549C17.0976 74.3219 16.7816 73.7729 16.2476 73.6299C15.7166 73.4849 15.1656 73.8029 15.0226 74.3369L13.8136 78.8499C13.6706 79.3829 13.9866 79.9319 14.5206 80.0749C14.6066 80.0979 14.6946 80.1089 14.7796 80.1089C15.2216 80.1089 15.6256 79.8149 15.7456 79.3679Z" fill="black"/>
<path d="M63.5766 80.0749C63.6626 80.0979 63.7506 80.1089 63.8356 80.1089C64.2776 80.1089 64.6816 79.8149 64.8006 79.3679L67.2666 70.1649C67.4096 69.6319 67.0936 69.0829 66.5596 68.9399C66.0266 68.7949 65.4776 69.1129 65.3346 69.6469L62.8686 78.8499C62.7266 79.3839 63.0426 79.9329 63.5766 80.0749Z" fill="black"/>
<path d="M24.3246 69.6469L21.8586 78.8499C21.7156 79.3829 22.0316 79.9319 22.5656 80.0749C22.6516 80.0979 22.7396 80.1089 22.8246 80.1089C23.2656 80.1089 23.6706 79.8149 23.7896 79.3679L26.2556 70.1649C26.3986 69.6319 26.0826 69.0829 25.5486 68.9399C25.0136 68.7949 24.4666 69.1129 24.3246 69.6469Z" fill="black"/>
<path d="M58.5796 65.8229L55.0886 78.8499C54.9456 79.3829 55.2616 79.9319 55.7956 80.0749C55.8826 80.0979 55.9696 80.1089 56.0546 80.1089C56.4956 80.1089 56.9006 79.8149 57.0196 79.3679L60.5106 66.3409C60.6536 65.8079 60.3376 65.2589 59.8036 65.1159C59.2686 64.9729 58.7226 65.2899 58.5796 65.8229Z" fill="black"/>
<path d="M63.8676 49.9509C63.3316 49.8059 62.7856 50.1249 62.6426 50.6579L59.6816 61.7089C59.5386 62.2419 59.8546 62.7909 60.3886 62.9339C60.4756 62.9569 60.5626 62.9679 60.6476 62.9679C61.0896 62.9679 61.4936 62.6739 61.6126 62.2269L64.5736 51.1759C64.7176 50.6429 64.4016 50.0939 63.8676 49.9509Z" fill="black"/>
<path d="M42.6506 64.9099C42.7366 64.9329 42.8246 64.9439 42.9096 64.9439C43.3506 64.9439 43.7556 64.6499 43.8746 64.2029L45.0836 59.6899C45.2266 59.1569 44.9106 58.6079 44.3766 58.4649C43.8446 58.3209 43.2946 58.6379 43.1516 59.1719L41.9426 63.6849C41.8006 64.2189 42.1166 64.7679 42.6506 64.9099Z" fill="black"/>
<path d="M40.8416 67.7999L37.8806 78.8509C37.7376 79.3839 38.0536 79.9329 38.5876 80.0759C38.6736 80.0989 38.7616 80.1099 38.8466 80.1099C39.2876 80.1099 39.6926 79.8159 39.8116 79.3689L42.7726 68.3179C42.9156 67.7849 42.5996 67.2359 42.0656 67.0929C41.5336 66.9499 40.9846 67.2669 40.8416 67.7999Z" fill="black"/>
<path d="M29.6126 53.7749C29.0816 53.6309 28.5306 53.9479 28.3876 54.4819L25.4266 65.5329C25.2836 66.0659 25.5996 66.6149 26.1336 66.7579C26.2196 66.7809 26.3076 66.7919 26.3926 66.7919C26.8336 66.7919 27.2386 66.4979 27.3576 66.0509L30.3196 54.9999C30.4626 54.4669 30.1466 53.9179 29.6126 53.7749Z" fill="black"/>
<path d="M71.4936 50.5269C70.9616 50.3819 70.4116 50.6999 70.2686 51.2339L66.4366 65.5329C66.2936 66.0659 66.6096 66.6149 67.1436 66.7579C67.2296 66.7809 67.3176 66.7919 67.4026 66.7919C67.8436 66.7919 68.2486 66.4979 68.3676 66.0509L72.2006 51.7519C72.3436 51.2189 72.0276 50.6699 71.4936 50.5269Z" fill="black"/>
<path d="M30.5766 80.0749C30.6626 80.0979 30.7506 80.1089 30.8356 80.1089C31.2776 80.1089 31.6816 79.8149 31.8006 79.3679L37.2726 58.9459C37.4156 58.4129 37.0996 57.8639 36.5656 57.7209C36.0266 57.5749 35.4836 57.8939 35.3406 58.4279L29.8686 78.8499C29.7266 79.3839 30.0426 79.9329 30.5766 80.0749Z" fill="black"/>
<path d="M14.0646 50.5269C13.5256 50.3819 12.9826 50.6999 12.8396 51.2339L5.43964 78.8499C5.29664 79.3829 5.61264 79.9319 6.14664 80.0749C6.23364 80.0979 6.32064 80.1089 6.40564 80.1089C6.84664 80.1089 7.25164 79.8149 7.37064 79.3679L14.7706 51.7519C14.9156 51.2189 14.5986 50.6699 14.0646 50.5269Z" fill="black"/>
<path d="M54.6126 54.9619C54.0786 54.8169 53.5306 55.1349 53.3876 55.6689L47.1766 78.8509C47.0336 79.3839 47.3496 79.9329 47.8836 80.0759C47.9706 80.0989 48.0576 80.1099 48.1426 80.1099C48.5836 80.1099 48.9886 79.8159 49.1076 79.3689L55.3186 56.1869C55.4626 55.6529 55.1466 55.1039 54.6126 54.9619Z" fill="black"/>
</svg>
