<svg width="80" height="81" viewBox="0 0 80 81" fill="none" xmlns="http://www.w3.org/2000/svg">
<path d="M79 39.1H70.2L73.2 36.1C73.6 35.7 73.6 35.1 73.2 34.7C72.8 34.3 72.2 34.3 71.8 34.7L67.4 39.1H63.6L69.6 33.1C70 32.7 70 32.1 69.6 31.7C69.2 31.3 68.6 31.3 68.2 31.7L60.7 39.2H42.4L46 35.6H52.2C52.8 35.6 53.2 35.2 53.2 34.6C53.2 34 52.8 33.6 52.2 33.6H48L55.3 26.3H65.9C66.5 26.3 66.9 25.9 66.9 25.3C66.9 24.7 66.5 24.3 65.9 24.3H57.3L60 21.6H66.3C66.9 21.6 67.3 21.2 67.3 20.6C67.3 20 66.9 19.6 66.3 19.6H62L68.2 13.4C68.6 13 68.6 12.4 68.2 12C67.8 11.6 67.2 11.6 66.8 12L60.6 18.2V13.9C60.6 13.3 60.2 12.9 59.6 12.9C59 12.9 58.6 13.3 58.6 13.9V20.2L56 22.7V14.1C56 13.5 55.6 13.1 55 13.1C54.4 13.1 54 13.5 54 14.1V24.7L46.6 32.1V27.8C46.6 27.2 46.2 26.8 45.6 26.8C45 26.8 44.6 27.2 44.6 27.8V34.1L41 37.7V18.8L48.5 11.3C48.9 10.9 48.9 10.3 48.5 9.9C48.1 9.5 47.5 9.5 47.1 9.9L41.1 15.9V12.1L45.5 7.7C45.9 7.3 45.9 6.7 45.5 6.3C45.1 5.9 44.5 5.9 44.1 6.3L41.1 9.3V1C41.1 0.4 40.7 0 40.1 0C39.5 0 39.1 0.4 39.1 1V9.3L36.1 6.3C35.7 5.9 35.1 5.9 34.7 6.3C34.3 6.7 34.3 7.3 34.7 7.7L39.1 12.1V16L33.1 10C32.7 9.6 32.1 9.6 31.7 10C31.3 10.4 31.3 11 31.7 11.4L39.2 18.9V37.8L36.2 34.8V28.5C36.2 27.9 35.8 27.5 35.2 27.5C34.6 27.5 34.2 27.9 34.2 28.5V32.8L25.9 24.5V13.8C25.9 13.2 25.5 12.8 24.9 12.8C24.3 12.8 23.9 13.2 23.9 13.8V22.4L21 19.7V13.4C21 12.8 20.6 12.4 20 12.4C19.4 12.4 19 12.8 19 13.4V17.7L13.1 11.8C12.7 11.4 12.1 11.4 11.7 11.8C11.3 12.2 11.3 12.8 11.7 13.2L17.6 19.1H13.3C12.7 19.1 12.3 19.5 12.3 20.1C12.3 20.7 12.7 21.1 13.3 21.1H19.6L22.3 23.8H13.7C13.1 23.8 12.7 24.2 12.7 24.8C12.7 25.4 13.1 25.8 13.7 25.8H24.3L32.6 34.1H28.3C27.7 34.1 27.3 34.5 27.3 35.1C27.3 35.7 27.7 36.1 28.3 36.1H34.6L37.6 39.1H18.7L11.2 31.6C10.8 31.2 10.2 31.2 9.8 31.6C9.4 32 9.4 32.6 9.8 33L15.8 39H12L7.6 34.6C7.2 34.2 6.6 34.2 6.2 34.6C5.8 35 5.8 35.6 6.2 36L9.2 39H1C0.4 39 0 39.4 0 40C0 40.6 0.4 41 1 41H9.3L6.3 44C5.9 44.4 5.9 45 6.3 45.4C6.5 45.6 6.8 45.7 7 45.7C7.2 45.7 7.5 45.6 7.7 45.4L12.1 41H15.9L9.9 47C9.5 47.4 9.5 48 9.9 48.4C10.1 48.6 10.4 48.7 10.6 48.7C10.8 48.7 11.1 48.6 11.3 48.4L18.8 40.9H37.7L33.5 45.1H27.2C26.6 45.1 26.2 45.5 26.2 46.1C26.2 46.7 26.6 47.1 27.2 47.1H31.5L24.4 54.2H13.7C13.1 54.2 12.7 54.6 12.7 55.2C12.7 55.8 13.1 56.2 13.7 56.2H22.3L19.6 58.9H13.3C12.7 58.9 12.3 59.3 12.3 59.9C12.3 60.5 12.7 60.9 13.3 60.9H17.6L11.7 67C11.3 67.4 11.3 68 11.7 68.4C11.9 68.6 12.2 68.7 12.4 68.7C12.6 68.7 12.9 68.6 13.1 68.4L19 62.5V66.8C19 67.4 19.4 67.8 20 67.8C20.6 67.8 21 67.4 21 66.8V60.5L23.7 57.8V66.4C23.7 67 24.1 67.4 24.7 67.4C25.3 67.4 25.7 67 25.7 66.4V55.9L32.8 48.8V53C32.8 53.6 33.2 54 33.8 54C34.4 54 34.8 53.6 34.8 53V46.8L39.1 42.5V60.9L31.6 68.4C31.2 68.8 31.2 69.4 31.6 69.8C32 70.2 32.6 70.2 33 69.8L39 63.8V67.6L34.6 72C34.2 72.4 34.2 73 34.6 73.4C35 73.8 35.6 73.8 36 73.4L39 70.4V79.2C39 79.8 39.4 80.2 40 80.2C40.6 80.2 41 79.8 41 79.2V70.4L44 73.4C44.2 73.6 44.5 73.7 44.7 73.7C44.9 73.7 45.2 73.6 45.4 73.4C45.8 73 45.8 72.4 45.4 72L41 67.5V63.7L47 69.7C47.2 69.9 47.5 70 47.7 70C47.9 70 48.2 69.9 48.4 69.7C48.8 69.3 48.8 68.7 48.4 68.3L41 60.9V42.5L45.9 47.4V53.7C45.9 54.3 46.3 54.7 46.9 54.7C47.5 54.7 47.9 54.3 47.9 53.7V49.4L54 55.5V66.1C54 66.7 54.4 67.1 55 67.1C55.6 67.1 56 66.7 56 66.1V57.5L58.7 60.2V66.5C58.7 67.1 59.1 67.5 59.7 67.5C60.3 67.5 60.7 67.1 60.7 66.5V62.2L66.9 68.4C67.1 68.6 67.4 68.7 67.6 68.7C67.8 68.7 68.1 68.6 68.3 68.4C68.7 68 68.7 67.4 68.3 67L62.1 60.8H66.4C67 60.8 67.4 60.4 67.4 59.8C67.4 59.2 67 58.8 66.4 58.8H60.1L57.4 56.1H66C66.6 56.1 67 55.7 67 55.1C67 54.5 66.6 54.1 66 54.1H55.4L49.3 48H53.6C54.2 48 54.6 47.6 54.6 47C54.6 46.4 54.2 46 53.6 46H47.3L42.4 41.1H60.8L68.3 48.6C68.5 48.8 68.8 48.9 69 48.9C69.2 48.9 69.5 48.8 69.7 48.6C70.1 48.2 70.1 47.6 69.7 47.2L63.7 41.2H67.5L71.9 45.6C72.1 45.8 72.4 45.9 72.6 45.9C72.8 45.9 73.1 45.8 73.3 45.6C73.7 45.2 73.7 44.6 73.3 44.2L70.3 41.2H79C79.6 41.2 80 40.8 80 40.2C80 39.6 79.5 39.1 79 39.1Z" fill="black"/>
</svg>
